<svg width="143" height="157" viewBox="0 0 143 157" fill="none" xmlns="http://www.w3.org/2000/svg">
<path d="M57.3598 4.89371C54.9633 7.63257 48.8008 10.0291 43.3231 10.0291C31.3406 10.0291 29.9711 18.2457 40.5842 24.0658C46.062 26.8046 49.8279 26.8046 56.3327 23.381C62.8375 19.9575 65.9187 19.6151 71.3964 23.0387C76.8742 26.4623 79.613 26.1199 88.172 19.6151C100.497 10.7138 101.524 5.92078 90.9108 6.94786C86.4602 7.63257 79.613 6.26314 75.5047 3.86664C65.9187 -1.61109 62.4951 -1.26873 57.3598 4.89371Z" fill="#067432"/>
<path d="M89.8838 27.147C83.379 34.6789 74.4777 36.0483 69 30.5706C66.9458 28.5164 61.4681 28.8588 53.5939 31.5976C42.9808 35.3636 41.6114 36.733 44.0079 43.2378C47.4314 52.8238 61.4681 56.5898 76.8742 52.4815C86.8026 50.085 89.8838 47.0037 93.6497 35.7059C99.1275 19.6151 98.1004 17.9033 89.8838 27.147Z" fill="#067432"/>
<path d="M102.209 40.4989C98.4427 42.8954 99.8122 44.9496 107.344 49.7426C112.822 53.1662 119.327 57.6168 122.065 59.3286C125.831 62.4098 126.516 61.7251 125.147 57.9592C124.462 55.2203 120.011 50.7697 115.218 48.3732C107.344 43.9225 107.344 43.9225 118.299 45.6343C129.597 47.6885 133.706 43.2378 123.777 39.4719C116.245 36.733 107.686 37.0754 102.209 40.4989Z" fill="#067432"/>
<path d="M88.1719 56.5898C77.5589 62.4099 62.8375 62.7522 48.1161 57.2745C37.1606 53.1662 36.1336 53.8509 23.124 66.5182C-11.1118 100.069 -6.66118 144.918 32.0253 153.819C49.1432 157.928 92.965 157.928 110.083 153.819C147.4 145.26 153.905 103.835 122.75 70.6264C108.371 54.878 98.1003 50.7697 88.1719 56.5898ZM83.7213 90.8256C82.3519 92.195 79.2706 91.5103 77.2165 89.4561C72.0811 84.3208 60.7833 83.9784 60.7833 88.7714C60.7833 90.4832 60.441 93.2221 60.0986 94.5915C59.4139 95.9609 65.234 100.069 72.7658 103.835C88.1719 112.052 91.5955 124.719 79.613 131.224C75.8471 133.278 71.7388 136.017 70.7117 137.729C68.3152 140.81 50.5126 125.061 50.5126 119.584C50.5126 114.448 53.2514 115.475 60.7833 123.007C66.6034 128.827 68.9999 129.17 74.82 126.431C84.0637 121.295 81.6671 115.818 67.9728 108.971C50.8549 100.754 48.8008 94.2491 59.7562 82.609L68.9999 72.6806L77.5589 80.5548C82.3519 85.0055 85.0907 89.7985 83.7213 90.8256Z" fill="#067432"/>
</svg>
