<svg width="28" height="28" viewBox="0 0 28 28" fill="none" xmlns="http://www.w3.org/2000/svg">
<path d="M7.13672 4.34766C3.31953 6.34922 0.246094 7.99531 0.180469 8.07187C0.065625 8.19765 0.0546875 8.26328 0.0546875 8.77734C0.0546875 9.63594 0.169531 9.78906 0.858594 9.83281L1.25781 9.86016V10.3305C1.25781 10.8773 1.35078 11.1125 1.63516 11.3039C1.80469 11.4187 1.88672 11.4297 2.49375 11.4297H3.17188V11.9219C3.17188 12.6547 3.34687 12.9883 3.78984 13.0977L3.9375 13.1359V15.925L3.9382 20.8634L4.5 20.5C4.42344 20.5 4.57109 20.5766 4.5 20.5C4.42891 20.5766 4.57656 20.5 4.5 20.5L4.75781 21V15.9141V13.125H5.41406H6.07031V17.3086V21.4922H5.41406H4.75781V20.9289C4.75234 20.557 4.73047 20.3383 4.68125 20.2781C4.57734 20.1414 4.36953 20.0758 4.21641 20.1359C3.98125 20.2234 3.94297 20.3328 3.9375 20.9234V21.4812L3.78984 21.5195C3.34687 21.6289 3.17188 21.9625 3.17188 22.6953V23.1875H2.49375C1.75547 23.1875 1.58594 23.2258 1.35078 23.45C1.11016 23.6797 1.07187 23.7781 1.03906 24.3086C1.01719 24.7461 1.00078 24.8008 0.902344 24.8172C0.623438 24.8555 0.535937 24.8937 0.35 25.0578C0.0601563 25.3148 0 25.5008 0 26.168C0 26.7859 0.0601562 26.9883 0.284375 27.1469C0.39375 27.2234 1.77188 27.2344 14 27.2344C26.2281 27.2344 27.6063 27.2234 27.7156 27.1469C27.9398 26.9883 28 26.7859 28 26.168C28 25.5008 27.9398 25.3148 27.65 25.0578C27.4641 24.8937 27.3766 24.8555 27.0977 24.8172C26.9992 24.8008 26.9828 24.7461 26.9609 24.3086C26.9281 23.7781 26.8898 23.6797 26.6492 23.45C26.4141 23.2258 26.2445 23.1875 25.5062 23.1875H24.8281V22.6953C24.8281 21.9625 24.6531 21.6289 24.2102 21.5195L24.0625 21.4812V17.3086V13.1359L24.2102 13.0977C24.6531 12.9883 24.8281 12.6547 24.8281 11.9219V11.4297H25.5062C26.1133 11.4297 26.1953 11.4187 26.3648 11.3039C26.6492 11.1125 26.7422 10.8773 26.7422 10.3305V9.86016L27.1414 9.83281C27.8305 9.78906 27.9453 9.63594 27.9453 8.77734C27.9453 8.26328 27.9344 8.19765 27.825 8.07187C27.6336 7.85859 18.2219 2.78906 18.0141 2.78906C17.8227 2.78906 17.6914 2.90937 17.6367 3.12812C17.6039 3.24844 17.6313 3.30859 17.7516 3.42891C17.8391 3.51641 19.9828 4.70312 22.5148 6.07031L27.125 8.55859V8.78828V9.02344H14H0.875V8.78828V8.55859L7.44297 5.11328C11.0578 3.21562 14.0547 1.64609 14.1094 1.62422C14.1805 1.58594 14.4539 1.70625 15.1812 2.10547C15.7227 2.39531 18.1556 3.67266 18.1556 3.67266C18.5111 3.74922 22.0426 4.9021 18.4728 3C18.4017 2.93437 16.0453 1.62969 15.5039 1.33984C14.7164 0.907812 14.4648 0.798437 14.2461 0.78203C13.9781 0.760157 13.8961 0.798437 7.13672 4.34766ZM25.9219 10.2266V10.6094H14H2.07812V10.2266V9.84375H14H25.9219V10.2266ZM6.825 11.8781L6.84141 12.3047H5.41406H3.99219V11.9055C3.99219 11.6812 4.00859 11.4844 4.03047 11.4625C4.05234 11.4461 4.68125 11.4352 5.43594 11.4406L6.80859 11.457L6.825 11.8781ZM8.91406 11.9492C8.91406 12.2719 8.94141 12.5398 8.99062 12.6547C9.07812 12.868 9.31328 13.0648 9.52656 13.1086L9.67969 13.1359V17.3086V21.4812L9.51562 21.5195C9.29688 21.5687 9.07812 21.7492 8.99062 21.9625C8.94141 22.0773 8.91406 22.3453 8.91406 22.668V23.1875H8.28516H7.65625V22.6953C7.65625 21.9625 7.48125 21.6289 7.03828 21.5195L6.89062 21.4812V17.3086V13.1359L7.03828 13.0977C7.48125 12.9883 7.65625 12.6547 7.65625 11.9219V11.4297H8.28516H8.91406V11.9492ZM12.5234 11.8672V12.3047H11.1289H9.73438V11.8672V11.4297H11.1289H12.5234V11.8672ZM14.6562 12.0695C14.6836 12.6547 14.6891 12.6875 14.8422 12.8461C14.9352 12.9391 15.0883 13.043 15.1867 13.0812L15.3672 13.1469V17.3086V21.4703L15.1867 21.5359C15.0883 21.5742 14.9352 21.6781 14.8422 21.7711C14.6891 21.9297 14.6836 21.9625 14.6562 22.5477L14.6289 23.1602H14H13.3711L13.3438 22.5477C13.3164 21.9625 13.3109 21.9297 13.1578 21.7711C13.0648 21.6781 12.9117 21.5742 12.8133 21.5359L12.6328 21.4703V17.3086V13.1469L12.8188 13.0812C12.9227 13.043 13.0813 12.9227 13.1742 12.8187C13.3383 12.6328 13.3438 12.6164 13.3438 12.0641C13.3438 11.7578 13.3602 11.4844 13.382 11.4625C13.4039 11.4461 13.6938 11.4352 14.0219 11.4406L14.6289 11.457L14.6562 12.0695ZM18.2656 11.8672V12.3047H16.8711H15.4766V11.8672V11.4297H16.8711H18.2656V11.8672ZM20.3438 11.9219C20.3438 12.6547 20.5187 12.9883 20.9617 13.0977L21.1094 13.1359V17.3086V21.4812L20.9617 21.5195C20.5187 21.6289 20.3438 21.9625 20.3438 22.6953V23.1875H19.7148H19.0859V22.668C19.0859 22.3453 19.0586 22.0773 19.0094 21.9625C18.9219 21.7492 18.7031 21.5687 18.4844 21.5195L18.3203 21.4812V17.3086V13.1359L18.4734 13.1086C18.6867 13.0648 18.9219 12.868 19.0094 12.6547C19.0586 12.5398 19.0859 12.2719 19.0859 11.9492V11.4297H19.7148H20.3438V11.9219ZM23.9969 11.8781L24.0133 12.3047H22.5859H21.1641V11.9055C21.1641 11.6812 21.1805 11.4844 21.2023 11.4625C21.2242 11.4461 21.8531 11.4352 22.6078 11.4406L23.9805 11.457L23.9969 11.8781ZM11.8125 17.3086V21.4922H11.1562H10.5V17.3086V13.125H11.1562H11.8125V17.3086ZM17.5 17.3086V21.4922H16.8438H16.1875V17.3086V13.125H16.8438H17.5V17.3086ZM23.2422 17.3086V21.4922H22.5859H21.9297V17.3086V13.125H22.5859H23.2422V17.3086ZM6.825 22.7336L6.80859 23.1602H5.41406H4.01953L4.00312 22.7336L3.98672 22.3125H5.41406H6.84141L6.825 22.7336ZM12.5234 22.75V23.1875H11.1289H9.73438V22.75V22.3125H11.1289H12.5234V22.75ZM18.2656 22.75V23.1875H16.8711H15.4766V22.75V22.3125H16.8711H18.2656V22.75ZM23.9969 22.7336L23.9805 23.1602H22.5859H21.1914L21.175 22.7336L21.1586 22.3125H22.5859H24.0133L23.9969 22.7336ZM26.1297 24.4016L26.1461 24.7734H14H1.85938V24.4289C1.85938 24.2375 1.87578 24.0625 1.89766 24.0461C1.91406 24.0242 7.37188 24.0133 14.0219 24.0187L26.1133 24.0352L26.1297 24.4016ZM27.1688 26.0422L27.1852 26.4141H14H0.820312V26.0695C0.820312 25.8781 0.836719 25.7031 0.858594 25.6867C0.875 25.6648 6.80313 25.6539 14.0219 25.6594L27.1523 25.6758L27.1688 26.0422Z" fill="#FDA329"/>
</svg>
