<svg width="223" height="206" viewBox="0 0 223 206" fill="none" xmlns="http://www.w3.org/2000/svg">
<g clip-path="url(#clip0_52_46)">
<path d="M189.52 75.6354H27.4094V190.428H189.52V75.6354Z" fill="#3F5B6B"/>
<path opacity="0.1" d="M189.524 75.6354H167.167V190.428H189.524V75.6354Z" fill="black"/>
<path opacity="0.1" d="M56.2535 75.6354H27.4094V190.428H56.2535V75.6354Z" fill="black"/>
<path opacity="0.1" d="M101.422 75.6354H69.1226V190.428H101.422V75.6354Z" fill="black"/>
<path opacity="0.1" d="M153.877 75.6354H122.238V190.428H153.877V75.6354Z" fill="black"/>
<path d="M223 198.216H0V206.004H223V198.216Z" fill="#546D7D"/>
<path d="M223 198.216H0V200.584H223V198.216Z" fill="#BDD8E5"/>
<path d="M215.894 190.428H7.10596V198.216H215.894V190.428Z" fill="#546D7D"/>
<path d="M215.894 190.428H7.10596V193.136H215.894V190.428Z" fill="#BDD8E5"/>
<path d="M210.311 182.644H12.689V190.432H210.311V182.644Z" fill="#546D7D"/>
<path d="M210.311 182.644H12.689V185.182H210.311V182.644Z" fill="#BDD8E5"/>
<path d="M47.6423 180.442C47.6423 181.05 47.3984 181.598 46.9991 181.997C46.5999 182.397 46.0486 182.641 45.4409 182.641H18.2046C16.989 182.641 16.0032 181.654 16.0032 180.442C16.0032 179.83 16.247 179.282 16.6463 178.883C17.0456 178.483 17.5933 178.239 18.2046 178.239H45.4444C46.6599 178.239 47.6458 179.222 47.6458 180.442H47.6423Z" fill="#2D4854"/>
<path d="M44.3313 180.442C44.3313 181.05 44.0875 181.598 43.6882 181.997C43.289 182.397 42.7377 182.641 42.13 182.641H18.2046C16.989 182.641 16.0032 181.654 16.0032 180.442C16.0032 179.83 16.247 179.282 16.6463 178.883C17.0456 178.483 17.5933 178.239 18.2046 178.239H42.13C43.3455 178.239 44.3313 179.222 44.3313 180.442Z" fill="#627D8C"/>
<path d="M44.3315 180.442C44.3315 181.05 44.0877 181.598 43.6884 181.997C43.2891 182.397 42.7379 182.641 42.1301 182.641H21.5156C20.3001 182.641 19.3142 181.654 19.3142 180.442C19.3142 179.83 19.558 179.282 19.9573 178.883C20.3566 178.483 20.9043 178.239 21.5156 178.239H42.1301C43.3456 178.239 44.3315 179.222 44.3315 180.442Z" fill="#546D7D"/>
<path d="M42.5647 92.9287H21.0774V167.744H42.5647V92.9287Z" fill="#AEC3CE"/>
<path d="M25.8158 92.9287H21.0774V167.744H25.8158V92.9287Z" fill="#BAD3DD"/>
<path d="M42.5647 92.9287H37.1514V167.744H42.5647V92.9287Z" fill="#99AEBC"/>
<path d="M45.6107 171.219V178.243H18.0352V171.219C18.0352 168.741 20.0387 166.729 22.5192 166.729H41.1302C43.6037 166.729 45.6142 168.737 45.6142 171.219H45.6107Z" fill="#798C94"/>
<path d="M42.2998 171.219V178.243H18.0352V171.219C18.0352 168.741 20.0387 166.729 22.5192 166.729H37.8158C40.2892 166.729 42.2998 168.737 42.2998 171.219Z" fill="#AEC3CE"/>
<path d="M42.2996 171.219V178.243H21.3494V171.219C21.3494 168.741 23.3529 166.729 25.8334 166.729H37.8191C40.2925 166.729 42.3031 168.737 42.3031 171.219H42.2996Z" fill="#99AEBC"/>
<path d="M16.0032 83.2887C16.0032 82.6807 16.247 82.1328 16.6463 81.7333C17.0456 81.3339 17.5968 81.0899 18.2046 81.0899H45.4444C46.6599 81.0899 47.6458 82.0727 47.6458 83.2887C47.6458 83.9003 47.402 84.4482 47.0027 84.8477C46.6034 85.2471 46.0557 85.491 45.4444 85.491H18.2046C16.989 85.491 16.0032 84.5083 16.0032 83.2887Z" fill="#627D8C"/>
<path d="M19.3177 83.2887C19.3177 82.6807 19.5616 82.1328 19.9608 81.7333C20.3601 81.3339 20.9114 81.0899 21.5191 81.0899H45.4445C46.6601 81.0899 47.6459 82.0727 47.6459 83.2887C47.6459 83.9003 47.4021 84.4482 47.0028 84.8477C46.6035 85.2471 46.0558 85.491 45.4445 85.491H21.5156C20.3001 85.491 19.3142 84.5083 19.3142 83.2887H19.3177Z" fill="#2D4854"/>
<path d="M19.3176 83.2887C19.3176 82.6807 19.5614 82.1328 19.9607 81.7333C20.36 81.3339 20.9112 81.0899 21.519 81.0899H42.1335C43.3491 81.0899 44.3349 82.0727 44.3349 83.2887C44.3349 83.9003 44.0911 84.4482 43.6918 84.8477C43.2925 85.2471 42.7448 85.491 42.1335 85.491H21.519C20.3035 85.491 19.3176 84.5083 19.3176 83.2887Z" fill="#546D7D"/>
<path d="M18.0352 92.5116V85.4875H45.6142V92.5116C45.6142 94.9896 43.6107 97.0011 41.1302 97.0011H22.5192C20.0457 97.0011 18.0352 94.9932 18.0352 92.5116Z" fill="#AEC3CE"/>
<path d="M21.3459 92.5116V85.4875H45.6106V92.5116C45.6106 94.9896 43.6071 97.0011 41.1266 97.0011H25.83C23.3565 97.0011 21.3459 94.9932 21.3459 92.5116Z" fill="#798C94"/>
<path d="M21.3461 92.5116V85.4875H42.2963V92.5116C42.2963 94.9896 40.2928 97.0011 37.8122 97.0011H25.8266C23.3531 97.0011 21.3425 94.9932 21.3425 92.5116H21.3461Z" fill="#99AEBC"/>
<path d="M100.762 180.442C100.762 181.05 100.518 181.598 100.119 181.997C99.7194 182.397 99.1681 182.641 98.5604 182.641H71.3205C70.105 182.641 69.1191 181.654 69.1191 180.442C69.1191 179.83 69.363 179.282 69.7622 178.883C70.1615 178.483 70.7092 178.239 71.3205 178.239H98.5604C99.7759 178.239 100.762 179.222 100.762 180.442Z" fill="#2D4854"/>
<path d="M97.4473 180.442C97.4473 181.05 97.2035 181.598 96.8042 181.997C96.4049 182.397 95.8537 182.641 95.2459 182.641H71.3205C70.105 182.641 69.1191 181.654 69.1191 180.442C69.1191 179.83 69.363 179.282 69.7622 178.883C70.1615 178.483 70.7092 178.239 71.3205 178.239H95.2459C96.4615 178.239 97.4473 179.222 97.4473 180.442Z" fill="#627D8C"/>
<path d="M97.4472 180.442C97.4472 181.05 97.2034 181.598 96.8041 181.997C96.4048 182.397 95.8536 182.641 95.2458 182.641H74.6313C73.4158 182.641 72.4299 181.654 72.4299 180.442C72.4299 179.83 72.6737 179.282 73.073 178.883C73.4723 178.483 74.02 178.239 74.6313 178.239H95.2458C96.4614 178.239 97.4472 179.222 97.4472 180.442Z" fill="#546D7D"/>
<path d="M95.6841 92.9287H74.1968V167.744H95.6841V92.9287Z" fill="#AEC3CE"/>
<path d="M78.9352 92.9287H74.1968V167.744H78.9352V92.9287Z" fill="#BAD3DD"/>
<path d="M95.6841 92.9287H90.2708V167.744H95.6841V92.9287Z" fill="#99AEBC"/>
<path d="M98.7299 171.219V178.243H71.1509V171.219C71.1509 168.741 73.1544 166.729 75.6349 166.729H94.2459C96.7194 166.729 98.7299 168.737 98.7299 171.219Z" fill="#798C94"/>
<path d="M95.4155 171.219V178.243H71.1509V171.219C71.1509 168.741 73.1544 166.729 75.6349 166.729H90.9315C93.4049 166.729 95.4155 168.737 95.4155 171.219Z" fill="#AEC3CE"/>
<path d="M95.4155 171.219V178.243H74.4653V171.219C74.4653 168.741 76.4688 166.729 78.9494 166.729H90.935C93.4085 166.729 95.4191 168.737 95.4191 171.219H95.4155Z" fill="#99AEBC"/>
<path d="M69.1226 83.2887C69.1226 82.6807 69.3664 82.1328 69.7657 81.7333C70.1649 81.3339 70.7162 81.0899 71.3239 81.0899H98.5638C99.7793 81.0899 100.765 82.0727 100.765 83.2887C100.765 83.9003 100.521 84.4482 100.122 84.8477C99.7228 85.2471 99.1751 85.491 98.5638 85.491H71.3239C70.1084 85.491 69.1226 84.5083 69.1226 83.2887Z" fill="#627D8C"/>
<path d="M72.4336 83.2887C72.4336 82.6807 72.6774 82.1328 73.0767 81.7333C73.476 81.3339 74.0272 81.0899 74.635 81.0899H98.5604C99.7759 81.0899 100.762 82.0727 100.762 83.2887C100.762 83.9003 100.518 84.4482 100.119 84.8477C99.7194 85.2471 99.1717 85.491 98.5604 85.491H74.635C73.4194 85.491 72.4336 84.5083 72.4336 83.2887Z" fill="#2D4854"/>
<path d="M72.4336 83.2887C72.4336 82.6807 72.6774 82.1328 73.0767 81.7333C73.476 81.3339 74.0272 81.0899 74.635 81.0899H95.2495C96.465 81.0899 97.4509 82.0727 97.4509 83.2887C97.4509 83.9003 97.2071 84.4482 96.8078 84.8477C96.4085 85.2471 95.8608 85.491 95.2495 85.491H74.635C73.4194 85.491 72.4336 84.5083 72.4336 83.2887Z" fill="#546D7D"/>
<path d="M71.1509 92.5116V85.4875H98.7299V92.5116C98.7299 94.9896 96.7264 97.0011 94.2459 97.0011H75.6349C73.1614 97.0011 71.1509 94.9932 71.1509 92.5116Z" fill="#AEC3CE"/>
<path d="M74.4653 92.5116V85.4875H98.73V92.5116C98.73 94.9896 96.7265 97.0011 94.2459 97.0011H78.9494C76.4759 97.0011 74.4653 94.9932 74.4653 92.5116Z" fill="#798C94"/>
<path d="M74.4652 92.5116V85.4875H95.4154V92.5116C95.4154 94.9896 93.4119 97.0011 90.9314 97.0011H78.9457C76.4722 97.0011 74.4617 94.9932 74.4617 92.5116H74.4652Z" fill="#99AEBC"/>
<path d="M153.881 180.442C153.881 181.05 153.637 181.598 153.238 181.997C152.839 182.397 152.287 182.641 151.68 182.641H124.44C123.224 182.641 122.238 181.654 122.238 180.442C122.238 179.83 122.482 179.282 122.881 178.883C123.281 178.483 123.828 178.239 124.44 178.239H151.68C152.895 178.239 153.881 179.222 153.881 180.442Z" fill="#2D4854"/>
<path d="M150.566 180.442C150.566 181.05 150.323 181.598 149.923 181.997C149.524 182.397 148.973 182.641 148.365 182.641H124.44C123.224 182.641 122.238 181.654 122.238 180.442C122.238 179.83 122.482 179.282 122.881 178.883C123.281 178.483 123.828 178.239 124.44 178.239H148.365C149.581 178.239 150.566 179.222 150.566 180.442Z" fill="#627D8C"/>
<path d="M150.567 180.442C150.567 181.05 150.323 181.598 149.923 181.997C149.524 182.397 148.973 182.641 148.365 182.641H127.751C126.535 182.641 125.549 181.654 125.549 180.442C125.549 179.83 125.793 179.282 126.192 178.883C126.592 178.483 127.139 178.239 127.751 178.239H148.365C149.581 178.239 150.567 179.222 150.567 180.442Z" fill="#546D7D"/>
<path d="M148.803 92.9287H127.316V167.744H148.803V92.9287Z" fill="#AEC3CE"/>
<path d="M132.054 92.9287H127.316V167.744H132.054V92.9287Z" fill="#BAD3DD"/>
<path d="M148.803 92.9287H143.39V167.744H148.803V92.9287Z" fill="#99AEBC"/>
<path d="M151.849 171.219V178.243H124.27V171.219C124.27 168.741 126.274 166.729 128.754 166.729H147.365C149.839 166.729 151.849 168.737 151.849 171.219Z" fill="#798C94"/>
<path d="M148.535 171.219V178.243H124.27V171.219C124.27 168.741 126.274 166.729 128.754 166.729H144.051C146.524 166.729 148.535 168.737 148.535 171.219Z" fill="#AEC3CE"/>
<path d="M148.535 171.219V178.243H127.584V171.219C127.584 168.741 129.588 166.729 132.069 166.729H144.054C146.528 166.729 148.538 168.737 148.538 171.219H148.535Z" fill="#99AEBC"/>
<path d="M122.238 83.2887C122.238 82.6807 122.482 82.1328 122.881 81.7333C123.281 81.3339 123.832 81.0899 124.44 81.0899H151.68C152.895 81.0899 153.881 82.0727 153.881 83.2887C153.881 83.9003 153.637 84.4482 153.238 84.8477C152.839 85.2471 152.291 85.491 151.68 85.491H124.44C123.224 85.491 122.238 84.5083 122.238 83.2887Z" fill="#627D8C"/>
<path d="M125.553 83.2887C125.553 82.6807 125.797 82.1328 126.196 81.7333C126.595 81.3339 127.146 81.0899 127.754 81.0899H151.68C152.895 81.0899 153.881 82.0727 153.881 83.2887C153.881 83.9003 153.637 84.4482 153.238 84.8477C152.839 85.2471 152.291 85.491 151.68 85.491H127.754C126.539 85.491 125.553 84.5083 125.553 83.2887Z" fill="#2D4854"/>
<path d="M125.553 83.2887C125.553 82.6807 125.797 82.1328 126.196 81.7333C126.595 81.3339 127.146 81.0899 127.754 81.0899H148.369C149.584 81.0899 150.57 82.0727 150.57 83.2887C150.57 83.9003 150.326 84.4482 149.927 84.8477C149.528 85.2471 148.98 85.491 148.369 85.491H127.754C126.539 85.491 125.553 84.5083 125.553 83.2887Z" fill="#546D7D"/>
<path d="M124.27 92.5116V85.4875H151.849V92.5116C151.849 94.9896 149.846 97.0011 147.365 97.0011H128.754C126.281 97.0011 124.27 94.9932 124.27 92.5116Z" fill="#AEC3CE"/>
<path d="M127.584 92.5116V85.4875H151.849V92.5116C151.849 94.9896 149.846 97.0011 147.365 97.0011H132.069C129.595 97.0011 127.584 94.9932 127.584 92.5116Z" fill="#798C94"/>
<path d="M127.585 92.5116V85.4875H148.535V92.5116C148.535 94.9896 146.531 97.0011 144.051 97.0011H132.065C129.592 97.0011 127.581 94.9932 127.581 92.5116H127.585Z" fill="#99AEBC"/>
<path d="M206.997 180.442C206.997 181.05 206.753 181.598 206.354 181.997C205.954 182.397 205.403 182.641 204.795 182.641H177.555C176.34 182.641 175.354 181.654 175.354 180.442C175.354 179.83 175.598 179.282 175.997 178.883C176.396 178.483 176.944 178.239 177.555 178.239H204.795C206.011 178.239 206.997 179.222 206.997 180.442Z" fill="#2D4854"/>
<path d="M203.686 180.442C203.686 181.05 203.442 181.598 203.043 181.997C202.643 182.397 202.092 182.641 201.484 182.641H177.559C176.344 182.641 175.358 181.654 175.358 180.442C175.358 179.83 175.601 179.282 176.001 178.883C176.4 178.483 176.948 178.239 177.559 178.239H201.484C202.7 178.239 203.686 179.222 203.686 180.442Z" fill="#627D8C"/>
<path d="M203.686 180.442C203.686 181.05 203.442 181.598 203.043 181.997C202.643 182.397 202.092 182.641 201.484 182.641H180.87C179.654 182.641 178.668 181.654 178.668 180.442C178.668 179.83 178.912 179.282 179.312 178.883C179.711 178.483 180.259 178.239 180.87 178.239H201.484C202.7 178.239 203.686 179.222 203.686 180.442Z" fill="#546D7D"/>
<path d="M201.919 92.9287H180.432V167.744H201.919V92.9287Z" fill="#AEC3CE"/>
<path d="M185.17 92.9287H180.432V167.744H185.17V92.9287Z" fill="#BAD3DD"/>
<path d="M201.919 92.9287H196.506V167.744H201.919V92.9287Z" fill="#99AEBC"/>
<path d="M204.968 171.219V178.243H177.389V171.219C177.389 168.741 179.393 166.729 181.873 166.729H200.484C202.958 166.729 204.968 168.737 204.968 171.219Z" fill="#798C94"/>
<path d="M201.654 171.219V178.243H177.389V171.219C177.389 168.741 179.393 166.729 181.873 166.729H197.17C199.643 166.729 201.654 168.737 201.654 171.219Z" fill="#AEC3CE"/>
<path d="M201.654 171.219V178.243H180.704V171.219C180.704 168.741 182.707 166.729 185.188 166.729H197.174C199.647 166.729 201.658 168.737 201.658 171.219H201.654Z" fill="#99AEBC"/>
<path d="M175.358 83.2887C175.358 82.6807 175.601 82.1328 176.001 81.7333C176.4 81.3339 176.951 81.0899 177.559 81.0899H204.799C206.014 81.0899 207 82.0727 207 83.2887C207 83.9003 206.756 84.4482 206.357 84.8477C205.958 85.2471 205.41 85.491 204.799 85.491H177.559C176.344 85.491 175.358 84.5083 175.358 83.2887Z" fill="#627D8C"/>
<path d="M178.672 83.2887C178.672 82.6807 178.916 82.1328 179.315 81.7333C179.715 81.3339 180.266 81.0899 180.874 81.0899H204.799C206.014 81.0899 207 82.0727 207 83.2887C207 83.9003 206.756 84.4482 206.357 84.8477C205.958 85.2471 205.41 85.491 204.799 85.491H180.874C179.658 85.491 178.672 84.5083 178.672 83.2887Z" fill="#2D4854"/>
<path d="M178.672 83.2887C178.672 82.6807 178.916 82.1328 179.315 81.7333C179.715 81.3339 180.266 81.0899 180.874 81.0899H201.488C202.704 81.0899 203.689 82.0727 203.689 83.2887C203.689 83.9003 203.446 84.4482 203.046 84.8477C202.647 85.2471 202.099 85.491 201.488 85.491H180.874C179.658 85.491 178.672 84.5083 178.672 83.2887Z" fill="#546D7D"/>
<path d="M177.389 92.5116V85.4875H204.968V92.5116C204.968 94.9896 202.965 97.0011 200.484 97.0011H181.873C179.4 97.0011 177.389 94.9932 177.389 92.5116Z" fill="#AEC3CE"/>
<path d="M180.704 92.5116V85.4875H204.968V92.5116C204.968 94.9896 202.965 97.0011 200.484 97.0011H185.188C182.714 97.0011 180.704 94.9932 180.704 92.5116Z" fill="#798C94"/>
<path d="M180.704 92.5116V85.4875H201.654V92.5116C201.654 94.9896 199.651 97.0011 197.17 97.0011H185.184C182.711 97.0011 180.7 94.9932 180.7 92.5116H180.704Z" fill="#99AEBC"/>
<path d="M213.353 81.0899H9.64999C8.94683 81.0899 8.37793 80.5208 8.37793 79.8173C8.37793 79.1138 8.94683 78.5447 9.64999 78.5447H213.353C214.057 78.5447 214.626 79.1138 214.626 79.8173C214.626 80.5208 214.057 81.0899 213.353 81.0899Z" fill="#798C94"/>
<path d="M211.325 72.7296H11.6748V78.5412H211.325V72.7296Z" fill="#99AEBC"/>
<path d="M111.846 2.54875L7.11646 73.2811H216.58L111.846 2.54875Z" fill="#546D7D"/>
<path d="M111.5 13.327L31.9287 67.0665H191.075L111.5 13.327Z" fill="#99AEBC"/>
<path d="M215.307 74.1047L111.5 3.99811L7.69591 74.1047L5.84082 71.358L111.5 0L217.159 71.358L215.307 74.1047Z" fill="#3F5B6B"/>
<path d="M89.0376 50.5367C92.1047 49.9817 93.0163 48.6101 93.0163 47.0158C93.0163 44.962 91.5358 43.4066 87.5818 43.4066H80.0377V44.6615L81.7939 44.8418C81.8292 46.8072 81.8327 48.7833 81.8327 50.7453V51.424C81.8327 53.4142 81.8327 55.3761 81.7939 57.3098L80.0342 57.4901V58.745H86.6807C92.4863 58.745 93.9174 56.3942 93.9174 54.4394C93.9174 52.3466 92.5181 50.9362 89.034 50.5402L89.0376 50.5367ZM86.5535 44.7499C88.3839 44.7499 89.2354 45.5806 89.2354 47.3092C89.2354 49.1545 88.3203 50.116 86.3415 50.116H85.6878C85.6878 48.3061 85.6949 46.5138 85.7267 44.7534H86.5535V44.7499ZM86.4934 57.4017H85.7231C85.6843 55.4221 85.6843 53.4248 85.6843 51.3568H86.4758C88.8008 51.3568 89.9033 52.2865 89.9033 54.4076C89.9033 56.3766 88.6524 57.4053 86.4934 57.4053V57.4017Z" fill="#2D4854"/>
<path d="M102.843 43.3712H100.433L95.6804 57.2108L93.8005 57.4866V58.7415H98.8323V57.4866L97.0408 57.2038L97.9878 54.2874H102.691L103.648 57.2992L101.85 57.5396V58.7415H109.041V57.5396L107.627 57.3734L102.846 43.3712H102.843ZM98.4259 52.9264L100.362 46.9699L102.256 52.9264H98.4294H98.4259Z" fill="#2D4854"/>
<path d="M122.111 43.4066H119.443V44.658L122.111 44.9584V52.8345L115.246 43.4066H109.977V44.6756L111.581 44.8135L111.928 45.2943V57.2073L109.945 57.4866V58.7415H111.928H113.429H116.101V57.4866L113.429 57.1755V47.3835L121.638 58.7874H123.613V54.8989V44.9514L125.599 44.658V43.4066H123.613H122.111Z" fill="#2D4854"/>
<path d="M140.726 57.324L136.118 48.6349L139.231 44.9443L141.429 44.658V43.403H136.03V44.658L137.549 44.9478L132.344 51.3886V50.6392C132.344 48.6844 132.344 46.7472 132.383 44.8453L134.16 44.6544V43.3995H126.804V44.6544L128.56 44.8347C128.595 46.7684 128.599 48.7091 128.599 50.6357V51.4982C128.599 53.4566 128.599 55.3974 128.56 57.2992L126.8 57.4795V58.7344H133.906V57.4795L132.379 57.3027C132.351 55.8852 132.344 54.4747 132.344 53.1067L133.655 51.5513L136.535 57.3558L135.418 57.4795V58.7344H142.16V57.4795L140.729 57.3169L140.726 57.324Z" fill="#2D4854"/>
<path d="M88.0446 50.5367C91.1117 49.9817 92.0234 48.6101 92.0234 47.0158C92.0234 44.962 90.5428 43.4066 86.5888 43.4066H79.0448V44.6615L80.8009 44.8418C80.8363 46.8072 80.8398 48.7833 80.8398 50.7453V51.424C80.8398 53.4142 80.8398 55.3761 80.8009 57.3098L79.0413 57.4901V58.745H85.6878C91.4934 58.745 92.9244 56.3942 92.9244 54.4394C92.9244 52.3466 91.5252 50.9362 88.0411 50.5402L88.0446 50.5367ZM85.5606 44.7499C87.391 44.7499 88.2425 45.5806 88.2425 47.3092C88.2425 49.1545 87.3273 50.116 85.3486 50.116H84.6949C84.6949 48.3061 84.7019 46.5138 84.7337 44.7534H85.5606V44.7499ZM85.5005 57.4017H84.7302C84.6913 55.4221 84.6913 53.4248 84.6913 51.3568H85.4829C87.8079 51.3568 88.9104 52.2865 88.9104 54.4076C88.9104 56.3766 87.6595 57.4053 85.5005 57.4053V57.4017Z" fill="#067432"/>
<path d="M101.85 43.3712H99.44L94.6874 57.2108L92.8076 57.4866V58.7415H97.8393V57.4866L96.0479 57.2038L96.9948 54.2874H101.698L102.656 57.2992L100.857 57.5396V58.7415H108.048V57.5396L106.634 57.3734L101.853 43.3712H101.85ZM97.433 52.9264L99.3694 46.9699L101.263 52.9264H97.4365H97.433Z" fill="#067432"/>
<path d="M121.118 43.4066H118.447V44.658L121.118 44.9584V52.8345L114.249 43.4066H108.984V44.6756L110.588 44.8135L110.935 45.2943V57.2073L108.949 57.4866V58.7415H110.935H112.436H115.104V57.4866L112.436 57.1755V47.3835L120.645 58.7874H122.62V54.8989V44.9514L124.602 44.658V43.4066H122.62H121.118Z" fill="#067432"/>
<path d="M139.733 57.324L135.125 48.6349L138.238 44.9443L140.436 44.658V43.403H135.037V44.658L136.556 44.9478L131.351 51.3886V50.6392C131.351 48.6844 131.351 46.7472 131.39 44.8453L133.167 44.6544V43.3995H125.811V44.6544L127.567 44.8347C127.602 46.7684 127.606 48.7091 127.606 50.6357V51.4982C127.606 53.4566 127.606 55.3974 127.567 57.2992L125.807 57.4795V58.7344H132.913V57.4795L131.39 57.3027C131.362 55.8852 131.355 54.4747 131.355 53.1067L132.666 51.5513L135.545 57.3558L134.429 57.4795V58.7344H141.171V57.4795L139.74 57.3169L139.733 57.324Z" fill="#067432"/>
<path d="M25.8159 99.5392L25.9113 107.323L25.9679 115.111L26.0138 130.679L25.9679 146.251L25.9113 154.035L25.8159 161.823L25.7205 154.035L25.664 146.251L25.6216 130.679L25.6675 115.111L25.7205 107.323L25.8159 99.5392Z" fill="#067432"/>
<path d="M37.1514 99.5392L37.2468 107.323L37.3033 115.111L37.3493 130.679L37.3033 146.251L37.2468 154.035L37.1514 161.823L37.056 154.035L37.003 146.251L36.957 130.679L37.003 115.111L37.056 107.323L37.1514 99.5392Z" fill="#067432"/>
<path d="M31.0491 99.5392L31.1445 107.323L31.201 115.111L31.247 130.679L31.201 146.251L31.1445 154.035L31.0491 161.823L30.9537 154.035L30.8971 146.251L30.8547 130.679L30.9007 115.111L30.9537 107.323L31.0491 99.5392Z" fill="#067432"/>
<path d="M78.9352 99.5392L79.0306 107.323L79.0836 115.111L79.1295 130.679L79.0871 146.251L79.0306 154.035L78.9352 161.823L78.8398 154.035L78.7832 146.251L78.7373 130.679L78.7832 115.111L78.8398 107.323L78.9352 99.5392Z" fill="#067432"/>
<path d="M132.051 99.5392L132.15 107.323L132.203 115.111L132.249 130.679L132.203 146.251L132.15 154.035L132.051 161.823L131.956 154.035L131.903 146.251L131.857 130.679L131.903 115.111L131.956 107.323L132.051 99.5392Z" fill="#067432"/>
<path d="M196.506 99.5392L196.601 107.323L196.658 115.111L196.703 130.679L196.658 146.251L196.605 154.035L196.506 161.823L196.41 154.035L196.357 146.251L196.311 130.679L196.357 115.111L196.41 107.323L196.506 99.5392Z" fill="#067432"/>
<path d="M137.213 99.5392L137.309 107.323L137.365 115.111L137.411 130.679L137.365 146.251L137.312 154.035L137.213 161.823L137.118 154.035L137.065 146.251L137.019 130.679L137.065 115.111L137.118 107.323L137.213 99.5392Z" fill="#067432"/>
<path d="M90.2706 99.5392L90.366 107.323L90.4226 115.111L90.465 130.679L90.4226 146.251L90.366 154.035L90.2706 161.823L90.1752 154.035L90.1187 146.251L90.0728 130.679L90.1187 115.111L90.1752 107.323L90.2706 99.5392Z" fill="#067432"/>
<path d="M84.942 99.5392L85.0374 107.323L85.0904 115.111L85.1364 130.679L85.0904 146.251L85.0374 154.035L84.942 161.823L84.8431 154.035L84.7901 146.251L84.7441 130.679L84.7901 115.111L84.8466 107.323L84.942 99.5392Z" fill="#067432"/>
<path d="M143.39 99.5392L143.485 107.323L143.538 115.111L143.584 130.679L143.538 146.251L143.485 154.035L143.39 161.823L143.291 154.035L143.238 146.251L143.192 130.679L143.238 115.111L143.295 107.323L143.39 99.5392Z" fill="#067432"/>
<path d="M185.17 99.5392L185.266 107.323L185.322 115.111L185.368 130.679L185.322 146.251L185.266 154.035L185.17 161.823L185.075 154.035L185.018 146.251L184.976 130.679L185.022 115.111L185.075 107.323L185.17 99.5392Z" fill="#067432"/>
<path d="M191.177 99.5392L191.273 107.323L191.329 115.111L191.375 130.679L191.329 146.251L191.273 154.035L191.177 161.823L191.082 154.035L191.025 146.251L190.983 130.679L191.029 115.111L191.082 107.323L191.177 99.5392Z" fill="#067432"/>
<path d="M67.0838 109.727V123.245H49.6565V109.727C49.6636 109.2 49.7166 108.684 49.812 108.186C50.5752 104.159 54.1264 101.105 58.3737 101.105C60.1016 101.105 61.7694 101.611 63.1969 102.562C63.6739 102.876 64.1262 103.247 64.5326 103.658C65.7834 104.909 66.6103 106.478 66.9318 108.182C67.0308 108.688 67.0802 109.2 67.0873 109.724L67.0838 109.727Z" fill="#3B7C7C"/>
<path d="M65.4195 109.823V121.584H51.3137V109.823C51.3137 106.227 54.0063 103.258 57.4903 102.83C57.78 102.784 58.0733 102.77 58.3701 102.77C59.3737 102.77 60.3242 102.982 61.1899 103.364C61.5715 103.523 61.9319 103.725 62.2711 103.951C62.6634 104.205 63.0238 104.506 63.3559 104.838C63.3877 104.87 63.4231 104.905 63.4549 104.944C63.893 105.393 64.264 105.899 64.5609 106.447C65.1086 107.451 65.4195 108.603 65.4195 109.826V109.823Z" fill="#99AEBC"/>
<path opacity="0.1" d="M61.1898 103.361L54.6386 121.584H51.3171V113.651C53.4372 109.939 55.7305 105.916 57.4937 102.83C57.7835 102.784 58.0767 102.77 58.3736 102.77C59.3771 102.77 60.3276 102.982 61.1933 103.364L61.1898 103.361Z" fill="white"/>
<path opacity="0.1" d="M64.5607 106.44L60.4795 121.584H56.469L63.4512 104.941C63.8894 105.39 64.2604 105.895 64.5572 106.443L64.5607 106.44Z" fill="white"/>
<path d="M58.7165 102.007V122.556H58.0239V102.007C58.137 101.968 58.2536 101.947 58.3737 101.947C58.4939 101.947 58.6034 101.968 58.72 102.007H58.7165Z" fill="#067432"/>
<path d="M66.6209 109.338H50.1123C50.1158 109.077 50.1688 108.822 50.2607 108.575H66.476C66.5714 108.826 66.6173 109.08 66.6244 109.338H66.6209Z" fill="#067432"/>
<path d="M66.6209 115.012H50.1123V115.779H66.6209V115.012Z" fill="#067432"/>
<path d="M67.0838 146.735V160.253H49.6565V146.735C49.6636 146.209 49.7166 145.692 49.812 145.194C50.5752 141.168 54.1264 138.113 58.3737 138.113C60.1016 138.113 61.7694 138.619 63.1969 139.57C63.6739 139.884 64.1262 140.256 64.5326 140.666C65.7834 141.917 66.6103 143.487 66.9318 145.191C67.0308 145.696 67.0802 146.209 67.0873 146.732L67.0838 146.735Z" fill="#067432"/>
<path d="M65.4195 146.831V158.592H51.3137V146.831C51.3137 143.236 54.0063 140.266 57.4903 139.838C57.78 139.793 58.0733 139.778 58.3701 139.778C59.3737 139.778 60.3242 139.99 61.1899 140.372C61.5715 140.531 61.9319 140.733 62.2711 140.959C62.6634 141.214 63.0238 141.514 63.3559 141.846C63.3877 141.878 63.4231 141.914 63.4549 141.952C63.893 142.401 64.264 142.907 64.5609 143.455C65.1086 144.459 65.4195 145.611 65.4195 146.834V146.831Z" fill="#99AEBC"/>
<path opacity="0.1" d="M61.1898 140.369L54.6386 158.592H51.3171V150.659C53.4372 146.947 55.7305 142.925 57.4937 139.838C57.7835 139.793 58.0767 139.778 58.3736 139.778C59.3771 139.778 60.3276 139.99 61.1933 140.372L61.1898 140.369Z" fill="white"/>
<path opacity="0.1" d="M64.5607 143.451L60.4795 158.595H56.469L63.4512 141.952C63.8894 142.401 64.2604 142.907 64.5572 143.455L64.5607 143.451Z" fill="white"/>
<path d="M58.7165 139.015V159.564H58.0239V139.015C58.137 138.976 58.2536 138.955 58.3737 138.955C58.4939 138.955 58.6034 138.976 58.72 139.015H58.7165Z" fill="#067432"/>
<path d="M66.6209 146.346H50.1123C50.1158 146.085 50.1688 145.83 50.2607 145.583H66.476C66.5714 145.834 66.6173 146.088 66.6244 146.346H66.6209Z" fill="#067432"/>
<path d="M66.6209 152.02H50.1123V152.787H66.6209V152.02Z" fill="#067432"/>
<path d="M120.214 109.727V123.245H102.786V109.727C102.793 109.2 102.846 108.684 102.942 108.186C103.705 104.159 107.256 101.105 111.504 101.105C113.231 101.105 114.899 101.611 116.327 102.562C116.804 102.876 117.256 103.247 117.662 103.658C118.913 104.909 119.74 106.478 120.062 108.182C120.161 108.688 120.21 109.2 120.217 109.724L120.214 109.727Z" fill="#067432"/>
<path d="M118.553 109.823V121.584H104.447V109.823C104.447 106.227 107.14 103.258 110.624 102.83C110.913 102.784 111.207 102.77 111.503 102.77C112.507 102.77 113.457 102.982 114.323 103.364C114.705 103.523 115.065 103.725 115.404 103.951C115.797 104.205 116.157 104.506 116.489 104.838C116.521 104.87 116.556 104.905 116.588 104.944C117.026 105.393 117.397 105.899 117.694 106.447C118.242 107.451 118.553 108.603 118.553 109.826V109.823Z" fill="#99AEBC"/>
<path opacity="0.1" d="M114.323 103.361L107.772 121.584H104.451V113.651C106.571 109.939 108.864 105.916 110.627 102.83C110.917 102.784 111.21 102.77 111.507 102.77C112.511 102.77 113.461 102.982 114.327 103.364L114.323 103.361Z" fill="white"/>
<path opacity="0.1" d="M117.694 106.44L113.613 121.584H109.603L116.585 104.941C117.023 105.39 117.394 105.895 117.691 106.443L117.694 106.44Z" fill="white"/>
<path d="M111.846 102.007V122.556H111.154V102.007C111.267 101.968 111.383 101.947 111.504 101.947C111.624 101.947 111.733 101.968 111.85 102.007H111.846Z" fill="#067432"/>
<path d="M119.754 109.338H103.246C103.249 109.077 103.302 108.822 103.394 108.575H119.609C119.705 108.826 119.751 109.08 119.758 109.338H119.754Z" fill="#067432"/>
<path d="M119.754 115.012H103.246V115.779H119.754V115.012Z" fill="#067432"/>
<path d="M120.214 146.735V160.253H102.786V146.735C102.793 146.209 102.846 145.692 102.942 145.194C103.705 141.168 107.256 138.113 111.504 138.113C113.231 138.113 114.899 138.619 116.327 139.57C116.804 139.884 117.256 140.256 117.662 140.666C118.913 141.917 119.74 143.487 120.062 145.191C120.161 145.696 120.21 146.209 120.217 146.732L120.214 146.735Z" fill="#067432"/>
<path d="M118.553 146.831V158.592H104.447V146.831C104.447 143.236 107.14 140.266 110.624 139.838C110.913 139.793 111.207 139.778 111.503 139.778C112.507 139.778 113.457 139.99 114.323 140.372C114.705 140.531 115.065 140.733 115.404 140.959C115.797 141.214 116.157 141.514 116.489 141.846C116.521 141.878 116.556 141.914 116.588 141.952C117.026 142.401 117.397 142.907 117.694 143.455C118.242 144.459 118.553 145.611 118.553 146.834V146.831Z" fill="#99AEBC"/>
<path opacity="0.1" d="M114.323 140.369L107.772 158.592H104.451V150.659C106.571 146.947 108.864 142.925 110.627 139.838C110.917 139.793 111.21 139.778 111.507 139.778C112.511 139.778 113.461 139.99 114.327 140.372L114.323 140.369Z" fill="white"/>
<path opacity="0.1" d="M117.694 143.451L113.613 158.595H109.603L116.585 141.952C117.023 142.401 117.394 142.907 117.691 143.455L117.694 143.451Z" fill="white"/>
<path d="M111.846 139.015V159.564H111.154V139.015C111.267 138.976 111.383 138.955 111.504 138.955C111.624 138.955 111.733 138.976 111.85 139.015H111.846Z" fill="#067432"/>
<path d="M119.754 146.346H103.246C103.249 146.085 103.302 145.83 103.394 145.583H119.609C119.705 145.834 119.751 146.088 119.758 146.346H119.754Z" fill="#067432"/>
<path d="M119.754 152.02H103.246V152.787H119.754V152.02Z" fill="#067432"/>
<path d="M173.732 109.727V123.245H156.305V109.727C156.312 109.2 156.365 108.684 156.46 108.186C157.224 104.159 160.775 101.105 165.022 101.105C166.75 101.105 168.418 101.611 169.845 102.562C170.322 102.876 170.775 103.247 171.181 103.658C172.432 104.909 173.259 106.478 173.58 108.182C173.679 108.688 173.729 109.2 173.736 109.724L173.732 109.727Z" fill="#067432"/>
<path d="M172.068 109.823V121.584H157.962V109.823C157.962 106.227 160.655 103.258 164.139 102.83C164.425 102.784 164.722 102.77 165.019 102.77C166.022 102.77 166.973 102.982 167.838 103.364C168.22 103.523 168.58 103.725 168.92 103.951C169.312 104.205 169.672 104.506 170.004 104.838C170.036 104.87 170.072 104.905 170.103 104.944C170.541 105.393 170.912 105.899 171.209 106.447C171.757 107.451 172.068 108.603 172.068 109.826V109.823Z" fill="#99AEBC"/>
<path opacity="0.1" d="M167.838 103.361L161.287 121.584H157.966V113.651C160.086 109.939 162.379 105.916 164.142 102.83C164.428 102.784 164.725 102.77 165.022 102.77C166.026 102.77 166.976 102.982 167.842 103.364L167.838 103.361Z" fill="white"/>
<path opacity="0.1" d="M171.209 106.44L167.128 121.584H163.118L170.1 104.941C170.538 105.39 170.909 105.895 171.206 106.443L171.209 106.44Z" fill="white"/>
<path d="M165.365 102.007V122.556H164.672V102.007C164.785 101.968 164.902 101.947 165.022 101.947C165.142 101.947 165.252 101.968 165.368 102.007H165.365Z" fill="#067432"/>
<path d="M173.273 109.338H156.764C156.768 109.077 156.821 108.822 156.913 108.575H173.128C173.224 108.826 173.269 109.08 173.277 109.338H173.273Z" fill="#067432"/>
<path d="M173.269 115.012H156.761V115.779H173.269V115.012Z" fill="#067432"/>
<path d="M173.732 146.735V160.253H156.305V146.735C156.312 146.209 156.365 145.692 156.46 145.194C157.224 141.168 160.775 138.113 165.022 138.113C166.75 138.113 168.418 138.619 169.845 139.57C170.322 139.884 170.775 140.256 171.181 140.666C172.432 141.917 173.259 143.487 173.58 145.191C173.679 145.696 173.729 146.209 173.736 146.732L173.732 146.735Z" fill="#067432"/>
<path d="M172.068 146.831V158.592H157.962V146.831C157.962 143.236 160.655 140.266 164.139 139.838C164.425 139.793 164.722 139.778 165.019 139.778C166.022 139.778 166.973 139.99 167.838 140.372C168.22 140.531 168.58 140.733 168.92 140.959C169.312 141.214 169.672 141.514 170.004 141.846C170.036 141.878 170.072 141.914 170.103 141.952C170.541 142.401 170.912 142.907 171.209 143.455C171.757 144.459 172.068 145.611 172.068 146.834V146.831Z" fill="#99AEBC"/>
<path opacity="0.1" d="M167.838 140.369L161.287 158.592H157.966V150.659C160.086 146.947 162.379 142.925 164.142 139.838C164.428 139.793 164.725 139.778 165.022 139.778C166.026 139.778 166.976 139.99 167.842 140.372L167.838 140.369Z" fill="white"/>
<path opacity="0.1" d="M171.209 143.451L167.128 158.595H163.118L170.1 141.952C170.538 142.401 170.909 142.907 171.206 143.455L171.209 143.451Z" fill="white"/>
<path d="M165.365 139.015V159.564H164.672V139.015C164.785 138.976 164.902 138.955 165.022 138.955C165.142 138.955 165.252 138.976 165.368 139.015H165.365Z" fill="#067432"/>
<path d="M173.273 146.346H156.764C156.768 146.085 156.821 145.83 156.913 145.583H173.128C173.224 145.834 173.269 146.088 173.277 146.346H173.273Z" fill="#067432"/>
<path d="M173.269 152.02H156.761V152.787H173.269V152.02Z" fill="#067432"/>
</g>
<defs>
<clipPath id="clip0_52_46">
<rect width="223" height="206" fill="white"/>
</clipPath>
</defs>
</svg>
