<svg width="28" height="28" viewBox="0 0 28 28" fill="none" xmlns="http://www.w3.org/2000/svg">
<path d="M1.75012 1.7504V25.3754C1.75012 25.6075 1.84231 25.83 2.0064 25.9941C2.1705 26.1582 2.39306 26.2504 2.62512 26.2504H26.2501" stroke="#FDA329" stroke-width="1.00189" stroke-linecap="round" stroke-linejoin="round"/>
<path d="M8.53215 12.2494H6.34433C5.74019 12.2494 5.25043 12.7392 5.25043 13.3433V21.657C5.25043 22.2612 5.74019 22.7509 6.34433 22.7509H8.53215C9.13629 22.7509 9.62605 22.2612 9.62605 21.657V13.3433C9.62605 12.7392 9.13629 12.2494 8.53215 12.2494Z" stroke="#FDA329" stroke-width="1.00189" stroke-linecap="round" stroke-linejoin="round"/>
<path d="M16.4076 9.62561H14.2201C13.616 9.62561 13.1263 10.1153 13.1263 10.7194V21.6569C13.1263 22.2609 13.616 22.7506 14.2201 22.7506H16.4076C17.0117 22.7506 17.5013 22.2609 17.5013 21.6569V10.7194C17.5013 10.1153 17.0117 9.62561 16.4076 9.62561Z" stroke="#FDA329" stroke-width="1.00189" stroke-linecap="round" stroke-linejoin="round"/>
<path d="M24.2618 6.12491H22.0743C21.4702 6.12491 20.9805 6.6146 20.9805 7.21866V21.6562C20.9805 22.2602 21.4702 22.7499 22.0743 22.7499H24.2618C24.8658 22.7499 25.3555 22.2602 25.3555 21.6562V7.21866C25.3555 6.6146 24.8658 6.12491 24.2618 6.12491Z" stroke="#FDA329" stroke-width="1.00189" stroke-linecap="round" stroke-linejoin="round"/>
</svg>
