<svg width="28" height="28" viewBox="0 0 28 28" fill="none" xmlns="http://www.w3.org/2000/svg">
<g clip-path="url(#clip0_210_1191)">
<path d="M13.043 0.0328274C12.9555 0.0437651 12.6438 0.0820465 12.3594 0.114859C10.325 0.339078 8.23598 1.18126 6.4477 2.49377C5.85161 2.93127 5.7477 3.13908 5.93911 3.50548C6.03755 3.70236 6.34927 3.85002 6.55708 3.8008C6.63364 3.77892 6.8688 3.63673 7.08208 3.47814C8.62973 2.30783 10.4454 1.55861 12.3977 1.2797C13.2836 1.15392 14.7547 1.15392 15.6133 1.2797C18.1344 1.65705 20.2727 2.70705 22.0883 4.45705C22.7993 5.14611 23.2149 5.64376 23.7344 6.4258C24.0899 6.9672 24.6641 8.02814 24.6641 8.14298C24.6641 8.1758 24.4618 8.08283 24.2157 7.93517C23.1383 7.3008 22.7719 7.10939 22.6516 7.10939C22.4383 7.10939 22.1977 7.26798 22.1157 7.4758C22.0118 7.71642 22.0555 7.9297 22.2469 8.1047C22.329 8.18126 23.0891 8.63517 23.9313 9.12189C25.5719 10.068 25.7415 10.1281 26.0094 9.90939C26.179 9.77814 27.9508 6.69377 27.9836 6.47502C28.0383 6.13595 27.7649 5.85158 27.3821 5.85158C27.1196 5.85158 26.9993 5.96095 26.7149 6.46408C26.5727 6.71564 26.3211 7.14767 26.1571 7.42658L25.8563 7.94064L25.6266 7.42658C24.8774 5.76408 23.543 4.04689 22.0938 2.88205C20.2782 1.41642 18.1836 0.497671 15.8594 0.136734C15.318 0.0547028 13.3985 -0.0163908 13.043 0.0328274Z" fill="#FDA329"/>
<path d="M1.99612 5.28828C0.191428 5.78047 0.0820531 5.82969 0.0218968 6.16328C-0.0491969 6.52422 0.213303 6.83594 0.590647 6.83594C0.710959 6.83594 2.33518 6.43125 2.91487 6.25625C2.9969 6.22891 2.98596 6.27813 2.84377 6.51875C2.10002 7.77656 1.5094 9.52109 1.27971 11.1289C1.15393 12.0148 1.15393 13.6391 1.27971 14.5195C1.81565 18.2656 3.85002 21.5031 6.96174 23.5539C7.90237 24.1719 9.53205 24.9375 9.9094 24.9375C10.2758 24.9375 10.5438 24.6258 10.4781 24.2703C10.4289 24.0023 10.2758 23.882 9.67971 23.6523C7.11486 22.668 4.84533 20.5898 3.57658 18.0523C2.17658 15.2523 1.95783 11.9711 2.98049 9.02344C3.19924 8.38906 3.74065 7.21875 3.81174 7.21875C3.83908 7.21875 3.96486 7.62344 4.09612 8.12109C4.35315 9.08906 4.44612 9.25313 4.75783 9.32422C4.98752 9.37344 5.27736 9.22031 5.39221 8.98516L5.48518 8.78828L5.03127 7.0875C4.54455 5.25 4.44612 4.96563 4.27658 4.87266C4.0633 4.75781 3.68049 4.82891 1.99612 5.28828Z" fill="#FDA329"/>
<path d="M12.8188 5.93907C11.1016 6.22345 9.45547 7.23517 8.37813 8.66798C7.98438 9.19298 7.4211 10.3524 7.25157 10.9922C6.07032 15.4602 9.37891 19.8024 13.9727 19.8133C15.9141 19.8188 17.5656 19.1352 18.9492 17.7461C19.9555 16.7399 20.568 15.6024 20.8742 14.1641C21.0055 13.5297 21.0109 12.1352 20.8742 11.5008C20.732 10.8336 20.5297 10.2649 20.2016 9.62501C19.1953 7.66173 17.3086 6.2836 15.132 5.9336C14.5195 5.83517 13.4203 5.83517 12.8188 5.93907ZM15.4328 7.18595C16.4391 7.44298 17.3961 7.99532 18.1398 8.73907C20.7266 11.3477 20.2727 15.6734 17.1938 17.6969C16.6305 18.0688 16.1383 18.2875 15.4766 18.4734C15.0063 18.6047 14.8695 18.6211 14 18.6211C13.1305 18.6211 12.9938 18.6047 12.5234 18.4734C10.1336 17.8063 8.48751 15.8813 8.20313 13.4094C8.1211 12.7367 8.19766 11.9274 8.40001 11.2328C9.03438 9.03985 10.8828 7.41564 13.1578 7.0547C13.7211 6.9672 14.8367 7.03282 15.4328 7.18595Z" fill="#FDA329"/>
<path d="M13.743 8.23594C13.5133 8.35079 13.3985 8.60782 13.3985 9.01251V9.3461L13.1031 9.42813C12.7696 9.52657 12.3375 9.82735 12.0914 10.1391C11.55 10.8172 11.55 11.9328 12.0914 12.6109C12.3321 12.9117 12.7641 13.218 13.0867 13.3164C13.2508 13.3656 13.5789 13.3984 13.8906 13.3984C14.5031 13.3984 14.8149 13.5188 15.0281 13.8359C15.1922 14.082 15.1813 14.5469 14.9953 14.8039C14.7711 15.1211 14.6289 15.1484 13.3438 15.1484C12.0367 15.1484 11.8891 15.1813 11.736 15.5039C11.6266 15.7281 11.6266 15.7719 11.736 15.9961C11.8672 16.2805 12.086 16.3516 12.7914 16.3516H13.3985V16.6523C13.3985 17.0406 13.5078 17.3086 13.7211 17.4125C13.9289 17.5219 14.0711 17.5219 14.2789 17.4125C14.4922 17.3031 14.6016 17.0406 14.6016 16.6305C14.6016 16.3078 14.6016 16.3078 14.7821 16.2695C15.5149 16.1109 16.1328 15.4438 16.2969 14.6453C16.4719 13.7867 15.9961 12.868 15.1703 12.4633C14.8477 12.3047 14.7602 12.2883 14.1094 12.2555C13.5133 12.2227 13.3766 12.2008 13.2508 12.1078C12.7149 11.7086 12.7149 11.0414 13.2508 10.6422C13.393 10.5328 13.4969 10.5274 14.6727 10.5C16.0727 10.4672 16.1438 10.4563 16.275 10.1336C16.3789 9.89844 16.3024 9.62501 16.0946 9.46094C15.9688 9.36251 15.8703 9.35157 15.2797 9.35157H14.6016V9.01798C14.6016 8.60235 14.4867 8.35079 14.2461 8.23594C14.0219 8.12657 13.9617 8.12657 13.743 8.23594Z" fill="#FDA329"/>
<path d="M25.9438 12.3539C25.725 12.4906 25.6484 12.7094 25.6484 13.2398C25.6484 13.475 25.6102 13.9562 25.5664 14.3117C24.9211 19.3211 21.1094 23.357 16.1273 24.3031C15.8977 24.3469 15.5258 24.4016 15.307 24.4234L14.9023 24.4617L15.5914 23.7562C16.3461 22.9797 16.4227 22.8375 16.2641 22.5039C16.1547 22.2742 15.8648 22.1266 15.6242 22.1812C15.493 22.2086 15.1484 22.5148 14.2297 23.4281C13.557 24.0898 12.9719 24.7023 12.9281 24.7844C12.8844 24.8664 12.8516 25.025 12.8516 25.1398C12.8516 25.3312 12.9172 25.4078 14.0984 26.5945C14.782 27.2836 15.4055 27.8797 15.4875 27.9234C15.6898 28.0273 15.8539 28.0219 16.0563 27.8961C16.275 27.7648 16.3789 27.4805 16.2969 27.2562C16.2641 27.1687 15.9141 26.7695 15.5148 26.3703C15.1211 25.9766 14.8258 25.6484 14.8586 25.6484C15.0883 25.6484 16.3133 25.457 16.8328 25.3422C20.4969 24.5219 23.718 22.0172 25.4188 18.6648C26.2391 17.0461 26.6602 15.5039 26.8023 13.6336C26.868 12.7203 26.8297 12.5234 26.5563 12.3539C26.343 12.2227 26.157 12.2227 25.9438 12.3539Z" fill="#FDA329"/>
</g>
<defs>
<clipPath id="clip0_210_1191">
<rect width="28" height="28" fill="white"/>
</clipPath>
</defs>
</svg>
