<svg width="195" height="41" viewBox="0 0 195 41" fill="none" xmlns="http://www.w3.org/2000/svg">
<path d="M49.1826 0.850586C49.3695 1.1709 49.4629 1.47786 49.4629 1.77148C48.849 1.93164 48.3018 2.11849 47.8213 2.33203C47.3675 2.51888 46.9538 2.74577 46.5801 3.0127C46.2064 3.25293 45.8594 3.5599 45.5391 3.93359C45.2454 4.2806 44.9518 4.69434 44.6582 5.1748C44.498 5.41504 44.3112 5.60189 44.0977 5.73535C43.9108 5.86882 43.7507 6.06901 43.6172 6.33594C43.4303 6.68294 43.2835 7.06999 43.1768 7.49707C43.07 7.89746 42.9632 8.3112 42.8564 8.73828C42.8031 8.87174 42.7497 9.01855 42.6963 9.17871C42.6429 9.31217 42.5895 9.44564 42.5361 9.5791C42.4827 9.87272 42.4694 10.153 42.4961 10.4199C42.5228 10.6868 42.4827 10.9538 42.376 11.2207C42.2959 11.4342 42.1891 11.6077 42.0557 11.7412C41.9222 11.8747 41.8154 12.0215 41.7354 12.1816C41.5218 12.5553 41.375 12.9691 41.2949 13.4229C41.2415 13.8766 41.1882 14.3571 41.1348 14.8643C41.1081 15.0244 41.0547 15.1712 40.9746 15.3047C40.9212 15.4382 40.8678 15.585 40.8145 15.7451C40.7611 15.9587 40.721 16.1722 40.6943 16.3857C40.6676 16.5726 40.6276 16.7728 40.5742 16.9863C40.3874 17.5202 40.1872 18.0674 39.9736 18.6279C39.7868 19.1618 39.6533 19.6956 39.5732 20.2295C39.5199 20.5231 39.4932 20.8167 39.4932 21.1104C39.5199 21.3773 39.5065 21.6576 39.4531 21.9512C39.3197 22.7253 39.1328 23.4727 38.8926 24.1934C38.6523 24.8874 38.4255 25.568 38.2119 26.2354C38.0785 26.7158 37.9717 27.1696 37.8916 27.5967C37.8382 27.9971 37.7314 28.4242 37.5713 28.8779C37.4645 29.1182 37.3844 29.3451 37.3311 29.5586C37.2777 29.7454 37.1709 29.9323 37.0107 30.1191C36.8506 30.306 36.6237 30.4528 36.3301 30.5596C36.0365 30.6663 35.7295 30.7598 35.4092 30.8398C35.0889 30.9199 34.7686 30.9867 34.4482 31.04C34.1546 31.1201 33.8877 31.2002 33.6475 31.2803C33.4072 31.387 33.207 31.5339 33.0469 31.7207C32.8867 31.9342 32.7132 32.1211 32.5264 32.2812C32.3395 32.4681 32.126 32.5882 31.8857 32.6416C31.6722 32.7217 31.3786 32.6816 31.0049 32.5215C30.9782 32.2012 30.9648 31.8408 30.9648 31.4404C30.9915 31.04 31.0316 30.6797 31.085 30.3594C31.165 29.9056 31.2985 29.5052 31.4854 29.1582C31.6989 28.8112 31.8991 28.4375 32.0859 28.0371C32.3796 27.3431 32.5664 26.6758 32.6465 26.0352C32.7266 25.3945 32.9001 24.7272 33.167 24.0332C33.4072 23.873 33.5674 23.6995 33.6475 23.5127C33.7275 23.3258 33.7676 23.1257 33.7676 22.9121C33.7943 22.6719 33.7943 22.4183 33.7676 22.1514C33.7409 21.8844 33.7542 21.5908 33.8076 21.2705C33.8343 20.9502 33.9144 20.6299 34.0479 20.3096C34.1813 19.9893 34.2747 19.6556 34.3281 19.3086C34.3815 19.015 34.4082 18.7881 34.4082 18.6279C34.4349 18.4411 34.4482 18.2809 34.4482 18.1475C34.4749 18.014 34.5016 17.8805 34.5283 17.7471C34.5817 17.5869 34.6484 17.3867 34.7285 17.1465C34.8353 16.9062 34.9554 16.666 35.0889 16.4258C35.2223 16.1855 35.3424 15.932 35.4492 15.665C35.6628 14.971 35.8229 14.237 35.9297 13.4629C36.0365 12.6888 36.1432 11.9281 36.25 11.1807C36.3034 10.7269 36.3835 10.2197 36.4902 9.65918C36.6237 9.09863 36.6637 8.59147 36.6104 8.1377C36.5036 8.1377 36.3034 8.29785 36.0098 8.61816C35.7428 8.93848 35.4092 9.36556 35.0088 9.89941C34.6351 10.4066 34.208 10.9938 33.7275 11.6611C33.2738 12.3018 32.82 12.9691 32.3662 13.6631C31.9391 14.3304 31.5254 14.971 31.125 15.585C30.7513 16.1722 30.4443 16.6794 30.2041 17.1064C29.8037 17.3467 29.4967 17.627 29.2832 17.9473C29.0964 18.2409 28.9362 18.5612 28.8027 18.9082C28.6693 19.2552 28.5358 19.6289 28.4023 20.0293C28.2689 20.403 28.0687 20.79 27.8018 21.1904C27.5882 22.0179 27.2279 22.832 26.7207 23.6328C26.2135 24.4336 25.7998 25.221 25.4795 25.9951C25.3994 26.2087 25.3193 26.4089 25.2393 26.5957C25.1859 26.7559 25.0924 26.9427 24.959 27.1562C24.7454 27.6901 24.4919 28.2106 24.1982 28.7178C23.9313 29.1982 23.651 29.7054 23.3574 30.2393C23.0371 30.7731 22.6768 31.2669 22.2764 31.7207C22.1162 31.9342 21.9827 32.2145 21.876 32.5615C21.7959 32.9085 21.6624 33.1087 21.4756 33.1621C21.2354 33.2155 20.9818 33.1755 20.7148 33.042C20.4479 32.9352 20.1943 32.8551 19.9541 32.8018C19.4736 32.1077 19.1934 31.4137 19.1133 30.7197C19.1133 30.5329 19.14 30.3594 19.1934 30.1992C19.2467 30.0124 19.2601 29.8389 19.2334 29.6787C19.2067 29.3851 19.0866 29.0648 18.873 28.7178C18.6595 28.3441 18.526 27.9704 18.4727 27.5967C18.3659 27.1429 18.3659 26.7158 18.4727 26.3154C18.5794 25.8883 18.5794 25.5013 18.4727 25.1543C18.4193 24.9941 18.3125 24.8607 18.1523 24.7539C18.0189 24.6204 17.9255 24.487 17.8721 24.3535C17.8187 24.1667 17.792 23.9531 17.792 23.7129C17.8187 23.4727 17.8187 23.2324 17.792 22.9922C17.7119 22.5384 17.5785 22.0312 17.3916 21.4707C17.2314 20.9102 17.0846 20.3496 16.9512 19.7891C16.8177 19.3887 16.6309 18.9215 16.3906 18.3877C16.1771 17.8538 16.0436 17.3467 15.9902 16.8662C15.9635 16.5993 15.9368 16.359 15.9102 16.1455C15.9102 15.9053 15.8968 15.6784 15.8701 15.4648C15.8167 14.9844 15.6966 14.4639 15.5098 13.9033C15.3229 13.3428 15.1227 12.7822 14.9092 12.2217C14.7223 11.6611 14.5488 11.1006 14.3887 10.54C14.2552 9.97949 14.1885 9.43229 14.1885 8.89844C14.055 8.95182 13.9349 9.07194 13.8281 9.25879C13.7214 9.44564 13.6146 9.67253 13.5078 9.93945C13.401 10.2064 13.3076 10.4733 13.2275 10.7402C13.1475 11.0072 13.0807 11.2207 13.0273 11.3809C12.9473 11.5143 12.8405 11.6611 12.707 11.8213C12.5736 11.9814 12.4935 12.1683 12.4668 12.3818C12.4401 12.4886 12.4535 12.6087 12.5068 12.7422C12.5869 12.8757 12.627 13.0225 12.627 13.1826C12.6536 13.6097 12.5736 14.0635 12.3867 14.5439C12.1999 14.9977 12.0397 15.4515 11.9062 15.9053C11.7728 16.4391 11.666 16.9997 11.5859 17.5869C11.5059 18.1475 11.3457 18.7347 11.1055 19.3486C10.8919 19.9359 10.7184 20.5365 10.585 21.1504C10.4782 21.7376 10.3581 22.2715 10.2246 22.752C10.1712 23.099 10.1445 23.446 10.1445 23.793C10.1445 24.14 10.0911 24.4202 9.98438 24.6338C9.85091 24.9007 9.62402 25.1143 9.30371 25.2744C9.01009 25.4346 8.82324 25.6615 8.74316 25.9551C8.71647 26.5156 8.59635 27.1562 8.38281 27.877C8.16927 28.5977 7.98242 29.265 7.82227 29.8789C7.76888 30.1191 7.72884 30.3727 7.70215 30.6396C7.67546 30.8799 7.62207 31.0934 7.54199 31.2803C7.48861 31.4938 7.38184 31.6673 7.22168 31.8008C7.08822 31.9609 6.87467 32.0544 6.58105 32.0811C6.07389 32.1344 5.56673 32.0143 5.05957 31.7207C4.5791 31.4271 4.28548 31.1201 4.17871 30.7998C4.12533 30.5863 4.12533 30.3727 4.17871 30.1592C4.2321 29.9189 4.25879 29.6921 4.25879 29.4785C3.91178 29.6921 3.64486 29.7988 3.45801 29.7988C3.29785 29.7988 3.15104 29.7454 3.01758 29.6387C2.88411 29.5052 2.7373 29.3451 2.57715 29.1582C2.41699 28.9447 2.20345 28.7445 1.93652 28.5576C1.6696 28.3441 1.4694 28.224 1.33594 28.1973C1.20247 28.1439 1.10905 27.9303 1.05566 27.5566C1.00228 27.1562 1.02897 26.7692 1.13574 26.3955C1.24251 26.0218 1.37598 25.7148 1.53613 25.4746C1.61621 25.3145 1.72298 25.181 1.85645 25.0742C1.98991 24.9408 2.09668 24.8073 2.17676 24.6738C2.28353 24.4603 2.28353 24.1667 2.17676 23.793C2.09668 23.3926 2.12337 23.0456 2.25684 22.752C2.44368 22.3516 2.64388 21.9779 2.85742 21.6309C3.07096 21.2572 3.19108 20.8034 3.21777 20.2695C3.24447 20.056 3.23112 19.8291 3.17773 19.5889C3.12435 19.3486 3.12435 19.1217 3.17773 18.9082C3.20443 18.6947 3.24447 18.4811 3.29785 18.2676C3.37793 18.0273 3.45801 17.7604 3.53809 17.4668C3.61816 17.0664 3.76497 16.6393 3.97852 16.1855C4.19206 15.7318 4.36556 15.238 4.49902 14.7041C4.60579 14.4906 4.69922 14.277 4.7793 14.0635C4.85938 13.8232 4.93945 13.5964 5.01953 13.3828C5.17969 12.929 5.28646 12.4886 5.33984 12.0615C5.41992 11.6077 5.52669 11.1673 5.66016 10.7402C5.71354 10.5801 5.79362 10.4466 5.90039 10.3398C6.03385 10.2064 6.12728 10.0729 6.18066 9.93945C6.39421 9.48568 6.50098 9.01855 6.50098 8.53809C6.50098 8.03092 6.55436 7.51042 6.66113 6.97656C6.74121 6.4694 6.83464 6.01562 6.94141 5.61523C7.07487 5.18815 7.18164 4.80111 7.26172 4.4541C7.3418 4.0804 7.35514 3.7334 7.30176 3.41309C7.27507 3.09277 7.1416 2.75911 6.90137 2.41211C6.7679 2.22526 6.62109 2.0918 6.46094 2.01172C6.32747 1.93164 6.2474 1.82487 6.2207 1.69141C6.2207 1.37109 6.34082 1.19759 6.58105 1.1709C6.84798 1.11751 7.1416 1.13086 7.46191 1.21094C7.78223 1.29102 8.08919 1.39779 8.38281 1.53125C8.70312 1.63802 8.90332 1.70475 8.9834 1.73145C9.11686 1.75814 9.27702 1.75814 9.46387 1.73145C9.65072 1.70475 9.85091 1.7181 10.0645 1.77148C10.3047 1.79818 10.5449 1.83822 10.7852 1.8916C11.0254 1.94499 11.2389 1.98503 11.4258 2.01172C11.8529 2.01172 12.1598 2.01172 12.3467 2.01172C12.5335 1.98503 12.8271 1.95833 13.2275 1.93164C13.6012 1.90495 14.055 1.90495 14.5889 1.93164C15.1494 1.95833 15.6299 1.94499 16.0303 1.8916C16.3773 1.86491 16.8044 1.81152 17.3115 1.73145C17.8454 1.65137 18.3525 1.58464 18.833 1.53125C19.3402 1.47786 19.7806 1.47786 20.1543 1.53125C20.5547 1.55794 20.7816 1.69141 20.835 1.93164C20.915 2.22526 20.835 2.49219 20.5947 2.73242C20.3812 2.94596 20.2477 3.17285 20.1943 3.41309C20.141 4.05371 20.0742 4.77441 19.9941 5.5752C19.9141 6.34928 19.9141 7.00326 19.9941 7.53711C20.0475 7.83073 20.0609 8.12435 20.0342 8.41797C20.0075 8.6849 20.0342 8.92513 20.1143 9.13867C20.2744 9.72591 20.3945 10.2865 20.4746 10.8203C20.5013 11.1406 20.6214 11.4476 20.835 11.7412C21.0752 12.0081 21.182 12.2884 21.1553 12.582C21.1286 12.9557 21.1953 13.3428 21.3555 13.7432C21.5423 14.1169 21.6491 14.5173 21.6758 14.9443C21.7292 15.3714 21.7559 15.8118 21.7559 16.2656C21.7826 16.7194 21.9294 17.1331 22.1963 17.5068C22.4632 17.2933 22.6234 17.0264 22.6768 16.7061C22.7568 16.3857 22.8636 16.0788 22.9971 15.7852C23.0505 15.6517 23.1305 15.5316 23.2373 15.4248C23.3708 15.2913 23.4909 15.1579 23.5977 15.0244C23.8913 14.4105 24.2516 13.7699 24.6787 13.1025C25.1325 12.4085 25.5195 11.7145 25.8398 11.0205C26.1868 10.3532 26.5205 9.68587 26.8408 9.01855C27.1611 8.32454 27.4681 7.63053 27.7617 6.93652C27.8151 6.82975 27.9085 6.70964 28.042 6.57617C28.2021 6.44271 28.3623 6.30924 28.5225 6.17578C28.6826 6.04232 28.8294 5.9222 28.9629 5.81543C29.123 5.68197 29.2432 5.5485 29.3232 5.41504C29.7236 4.66764 30.0573 4.02702 30.3242 3.49316C30.6178 2.93262 30.8314 2.23861 30.9648 1.41113C31.4453 1.38444 31.8991 1.39779 32.3262 1.45117C32.7799 1.50456 33.2738 1.57129 33.8076 1.65137C34.0212 1.70475 34.208 1.77148 34.3682 1.85156C34.555 1.93164 34.7419 1.98503 34.9287 2.01172C35.3024 2.0651 35.596 2.07845 35.8096 2.05176C36.0498 2.02507 36.25 1.99837 36.4102 1.97168C36.597 1.91829 36.7705 1.8916 36.9307 1.8916C37.1175 1.86491 37.3711 1.90495 37.6914 2.01172C38.599 2.01172 39.5332 1.94499 40.4941 1.81152C41.4551 1.67806 42.416 1.5446 43.377 1.41113C44.3646 1.25098 45.3389 1.11751 46.2998 1.01074C47.2874 0.903971 48.2484 0.850586 49.1826 0.850586ZM52.2061 12.7422C52.7132 12.3952 53.1536 11.9948 53.5273 11.541C53.901 11.0872 54.2614 10.6335 54.6084 10.1797C54.8219 10.2064 55.0088 10.1663 55.1689 10.0596C55.3291 9.9528 55.5026 9.87272 55.6895 9.81934C56.0632 9.71257 56.4368 9.72591 56.8105 9.85938C57.2109 9.96615 57.598 10.0062 57.9717 9.97949C58.4255 9.92611 58.8525 9.80599 59.2529 9.61914C59.68 9.43229 60.1738 9.33887 60.7344 9.33887C60.9212 9.33887 61.0947 9.4056 61.2549 9.53906C61.415 9.64583 61.5752 9.71257 61.7354 9.73926C61.9489 9.79264 62.1357 9.76595 62.2959 9.65918C62.4827 9.55241 62.6829 9.49902 62.8965 9.49902C63.2702 9.49902 63.5505 9.61914 63.7373 9.85938C63.9508 10.0996 64.1911 10.3398 64.458 10.5801C64.5915 11.194 64.6048 11.7946 64.498 12.3818C64.3913 12.9691 64.3646 13.5697 64.418 14.1836C64.4714 14.584 64.5247 14.971 64.5781 15.3447C64.6582 15.7184 64.6982 16.1055 64.6982 16.5059C64.7249 16.8529 64.6982 17.2266 64.6182 17.627C64.5648 18.0007 64.5514 18.3743 64.5781 18.748C64.6048 18.8815 64.6449 19.015 64.6982 19.1484C64.7516 19.2819 64.765 19.4154 64.7383 19.5488C64.6849 19.8424 64.5648 20.0693 64.3779 20.2295C64.1911 20.3896 64.0843 20.6032 64.0576 20.8701C64.0042 21.2705 64.0843 21.6442 64.2979 21.9912C64.5381 22.3382 64.6849 22.6986 64.7383 23.0723C64.765 23.2324 64.7516 23.4059 64.6982 23.5928C64.6449 23.7796 64.6182 23.9531 64.6182 24.1133C64.5648 24.7005 64.5648 25.3545 64.6182 26.0752C64.6982 26.7959 64.7516 27.4632 64.7783 28.0771C64.7783 28.2907 64.7917 28.5042 64.8184 28.7178C64.8717 28.9313 64.8717 29.1048 64.8184 29.2383C64.7917 29.3717 64.7249 29.4785 64.6182 29.5586C64.5381 29.6387 64.4714 29.7321 64.418 29.8389C64.3913 29.9723 64.3913 30.1592 64.418 30.3994C64.4714 30.6396 64.498 30.8665 64.498 31.0801C64.498 31.2669 64.4847 31.4404 64.458 31.6006C64.4313 31.7874 64.418 31.9476 64.418 32.0811C64.4447 32.1611 64.4714 32.2412 64.498 32.3213C64.5514 32.4281 64.5648 32.5215 64.5381 32.6016C64.4847 32.8418 64.2979 33.0954 63.9775 33.3623C63.6839 33.6559 63.377 33.7894 63.0566 33.7627C62.8965 33.736 62.6562 33.6025 62.3359 33.3623C62.0423 33.1488 61.8288 32.9753 61.6953 32.8418C61.4551 32.5482 61.3083 32.1745 61.2549 31.7207C61.2015 31.2669 61.0814 30.8532 60.8945 30.4795C60.8145 30.346 60.6943 30.2259 60.5342 30.1191C60.4007 29.9857 60.2806 29.8389 60.1738 29.6787C60.0137 29.3851 59.9069 29.0915 59.8535 28.7979C59.8001 28.4775 59.7601 28.1706 59.7334 27.877C59.7334 27.5566 59.7201 27.2497 59.6934 26.9561C59.6667 26.6357 59.5999 26.3154 59.4932 25.9951C59.4398 25.8883 59.3597 25.7949 59.2529 25.7148C59.1462 25.6348 59.0527 25.528 58.9727 25.3945C58.8125 25.1276 58.7057 24.9007 58.6523 24.7139C58.599 24.527 58.4255 24.3802 58.1318 24.2734C57.1976 24.2734 56.25 24.2467 55.2891 24.1934C54.3548 24.14 53.4339 24.1667 52.5264 24.2734C52.3128 24.3001 52.126 24.3535 51.9658 24.4336C51.8057 24.487 51.6188 24.527 51.4053 24.5537C51.2985 24.5537 51.1917 24.5404 51.085 24.5137C50.9782 24.487 50.8848 24.4736 50.8047 24.4736C50.431 24.527 50.0706 24.7005 49.7236 24.9941C49.3766 25.2611 49.1097 25.528 48.9229 25.7949C48.8161 25.9551 48.7493 26.1553 48.7227 26.3955C48.7227 26.609 48.6826 26.8226 48.6025 27.0361C48.5225 27.2497 48.389 27.4499 48.2021 27.6367C48.0153 27.7969 47.9486 28.0104 48.002 28.2773C47.7083 28.4909 47.4548 28.7578 47.2412 29.0781C47.0544 29.3984 46.8675 29.7321 46.6807 30.0791C46.4938 30.3994 46.2803 30.7064 46.04 31C45.8265 31.2936 45.5596 31.5072 45.2393 31.6406C45.1058 31.694 44.9723 31.7607 44.8389 31.8408C44.7321 31.9209 44.612 31.9609 44.4785 31.9609C44.3451 31.9342 44.265 31.8942 44.2383 31.8408C44.2383 31.7874 44.1582 31.7074 43.998 31.6006C43.8379 31.4938 43.651 31.3737 43.4375 31.2402C43.1973 31.1068 42.9704 30.96 42.7568 30.7998C42.5433 30.6396 42.3564 30.4795 42.1963 30.3193C42.0094 30.1325 41.876 29.959 41.7959 29.7988C41.5824 29.3451 41.5423 29.0247 41.6758 28.8379C41.8092 28.6243 41.9827 28.3708 42.1963 28.0771C42.4899 27.6501 42.8236 27.1696 43.1973 26.6357C43.571 26.1019 43.9046 25.5947 44.1982 25.1143C44.3584 24.8473 44.4919 24.5938 44.5986 24.3535C44.7321 24.1133 44.8923 23.8864 45.0791 23.6729C45.2926 23.3792 45.5596 23.139 45.8799 22.9521C46.2269 22.7653 46.4671 22.5251 46.6006 22.2314C46.654 22.098 46.6807 21.9645 46.6807 21.8311C46.6807 21.6709 46.7074 21.5107 46.7607 21.3506C46.9743 20.8167 47.3079 20.3363 47.7617 19.9092C48.2155 19.4821 48.5625 19.0016 48.8027 18.4678C48.8561 18.3343 48.8828 18.2142 48.8828 18.1074C48.9095 17.974 48.9495 17.8405 49.0029 17.707C49.43 16.7194 49.9505 15.8385 50.5645 15.0645C51.2051 14.2904 51.7523 13.5163 52.2061 12.7422ZM57.8115 12.6221C57.4912 12.8623 57.2109 13.1426 56.9707 13.4629C56.7572 13.7565 56.4635 13.9834 56.0898 14.1436C55.9831 14.3838 55.8496 14.6107 55.6895 14.8242C55.556 15.0378 55.3691 15.2113 55.1289 15.3447C55.0488 15.7718 54.8887 16.1455 54.6484 16.4658C54.4082 16.7594 54.1813 17.0531 53.9678 17.3467C53.861 17.4535 53.7676 17.5736 53.6875 17.707C53.6074 17.8138 53.514 17.9339 53.4072 18.0674C53.2738 18.2008 53.1403 18.3076 53.0068 18.3877C52.8734 18.4411 52.7533 18.5212 52.6465 18.6279C52.4863 18.8415 52.3128 19.1351 52.126 19.5088C51.9391 19.8825 51.7656 20.1895 51.6055 20.4297C51.472 20.5632 51.3385 20.6966 51.2051 20.8301C51.0716 20.9635 51.0316 21.137 51.085 21.3506C51.165 21.5641 51.3252 21.7109 51.5654 21.791C51.8057 21.8444 52.0726 21.8844 52.3662 21.9111C52.6865 21.9111 52.9935 21.8978 53.2871 21.8711C53.5807 21.8444 53.821 21.8311 54.0078 21.8311C54.3815 21.8311 54.7552 21.8444 55.1289 21.8711C55.5293 21.8711 55.903 21.8577 56.25 21.8311C56.6237 21.8044 56.944 21.7376 57.2109 21.6309C57.5046 21.5241 57.7314 21.3639 57.8916 21.1504C58.1585 20.2962 58.2253 19.4421 58.0918 18.5879C57.9583 17.707 57.8382 16.8395 57.7314 15.9854C57.6781 15.7451 57.638 15.4782 57.6113 15.1846C57.5846 14.891 57.5846 14.624 57.6113 14.3838C57.638 14.1169 57.7181 13.8633 57.8516 13.623C58.0117 13.3561 58.0384 13.0492 57.9316 12.7021L57.8115 12.6221ZM81.375 14.2637C81.6152 14.3704 81.7754 14.5173 81.8555 14.7041C81.9355 14.8643 81.9889 15.0378 82.0156 15.2246C82.069 15.4115 82.1224 15.5983 82.1758 15.7852C82.2292 15.972 82.3626 16.1188 82.5762 16.2256C82.6296 16.279 82.723 16.3457 82.8564 16.4258C82.9899 16.5059 83.1367 16.5993 83.2969 16.7061C83.457 16.7861 83.6038 16.8662 83.7373 16.9463C83.8975 16.9997 84.0176 17.013 84.0977 16.9863C84.2578 16.9596 84.4046 16.8395 84.5381 16.626C84.6715 16.4124 84.7783 16.1722 84.8584 15.9053C84.9652 15.6117 85.0319 15.318 85.0586 15.0244C85.0853 14.7308 85.0719 14.4906 85.0186 14.3037C84.9652 14.2236 84.8184 14.1169 84.5781 13.9834C84.3379 13.8232 84.151 13.7165 84.0176 13.6631C83.6439 13.5296 83.2969 13.3695 82.9766 13.1826C82.6562 12.9958 82.3092 12.8356 81.9355 12.7021C81.7754 12.6488 81.6019 12.5687 81.415 12.4619C81.2549 12.3285 81.0947 12.2617 80.9346 12.2617C80.8278 12.235 80.7077 12.2617 80.5742 12.3418C80.4408 12.3952 80.3073 12.4219 80.1738 12.4219C80.0137 12.4486 79.8135 12.4619 79.5732 12.4619C79.3597 12.4352 79.1328 12.4352 78.8926 12.4619C78.6523 12.4886 78.3988 12.5286 78.1318 12.582C77.8916 12.6354 77.6781 12.7288 77.4912 12.8623C77.1442 13.1559 76.8906 13.4896 76.7305 13.8633C76.597 14.2103 76.4102 14.6107 76.1699 15.0645C76.1165 15.1712 76.0231 15.2913 75.8896 15.4248C75.7562 15.5583 75.6895 15.7184 75.6895 15.9053C75.6895 16.012 75.7295 16.1055 75.8096 16.1855C75.9163 16.2656 75.9964 16.3857 76.0498 16.5459C76.1299 16.7061 76.1833 16.8796 76.21 17.0664C76.2367 17.2266 76.2767 17.3734 76.3301 17.5068C76.4102 17.5869 76.4902 17.667 76.5703 17.7471C76.6504 17.8005 76.7171 17.8538 76.7705 17.9072C76.8506 17.9873 76.904 18.0807 76.9307 18.1875C76.984 18.2943 77.0508 18.3743 77.1309 18.4277C77.2643 18.5078 77.4912 18.6546 77.8115 18.8682C78.1585 19.055 78.4788 19.1751 78.7725 19.2285C79.2796 19.3353 79.7334 19.5088 80.1338 19.749C80.5609 19.9626 80.9746 20.1494 81.375 20.3096C81.6686 20.443 81.8955 20.6032 82.0557 20.79C82.2425 20.9502 82.4027 21.1237 82.5361 21.3105C82.6696 21.4707 82.8031 21.6309 82.9365 21.791C83.0967 21.9512 83.3102 22.0713 83.5771 22.1514C83.7106 22.2048 83.8307 22.2314 83.9375 22.2314C84.0443 22.2314 84.1644 22.2581 84.2979 22.3115C84.4313 22.3649 84.5648 22.4583 84.6982 22.5918C84.8317 22.6986 84.9785 22.8187 85.1387 22.9521C85.2454 23.0589 85.3389 23.179 85.4189 23.3125C85.5257 23.4193 85.6058 23.526 85.6592 23.6328C85.7393 23.793 85.7926 24.0065 85.8193 24.2734C85.846 24.5137 85.8594 24.7139 85.8594 24.874C85.8861 25.5146 85.8727 26.0218 85.8193 26.3955C85.766 26.7692 85.6725 27.1162 85.5391 27.4365C85.4056 27.7568 85.2321 28.0771 85.0186 28.3975C84.8317 28.7178 84.6182 29.1315 84.3779 29.6387C84.0309 29.7988 83.6706 29.9857 83.2969 30.1992C82.9232 30.3861 82.6029 30.5863 82.3359 30.7998C82.2025 30.9066 82.0156 31.04 81.7754 31.2002C81.5352 31.3604 81.3216 31.4671 81.1348 31.5205C80.7611 31.654 80.3073 31.734 79.7734 31.7607C79.2396 31.7874 78.7458 31.8809 78.292 32.041C78.0251 32.1211 77.7048 32.1344 77.3311 32.0811C76.984 32.0277 76.6637 32.0143 76.3701 32.041C76.0231 32.0944 75.7295 32.1478 75.4893 32.2012C75.249 32.2812 74.9688 32.2946 74.6484 32.2412C74.2747 32.1878 73.861 32.041 73.4072 31.8008C72.9535 31.5872 72.5531 31.3737 72.2061 31.1602C72.0726 31.1068 71.9658 31.04 71.8857 30.96C71.8057 30.8532 71.6989 30.7598 71.5654 30.6797C71.3786 30.5729 71.1917 30.5062 71.0049 30.4795C70.818 30.4261 70.6445 30.3327 70.4844 30.1992C70.3242 30.0658 70.1774 29.9456 70.0439 29.8389C69.9105 29.7054 69.777 29.5719 69.6436 29.4385C69.3232 29.2249 68.9629 29.0114 68.5625 28.7979C68.1888 28.5576 67.9219 28.3174 67.7617 28.0771C67.6549 27.9437 67.5882 27.7702 67.5615 27.5566C67.5615 27.3164 67.5081 27.0895 67.4014 26.876C67.348 26.6891 67.2546 26.529 67.1211 26.3955C66.9876 26.262 66.9076 26.1286 66.8809 25.9951C66.8008 25.6214 66.8408 25.2077 67.001 24.7539C67.1611 24.3001 67.3079 23.9131 67.4414 23.5928C67.9486 23.5127 68.3623 23.5661 68.6826 23.7529C69.0296 23.9131 69.3232 24.14 69.5635 24.4336C69.8037 24.7272 70.0173 25.0609 70.2041 25.4346C70.391 25.7816 70.5778 26.0885 70.7646 26.3555C70.9782 26.7025 71.3118 26.9694 71.7656 27.1562C72.2194 27.3431 72.6598 27.5299 73.0869 27.7168C73.2471 27.7969 73.3939 27.877 73.5273 27.957C73.6875 28.0104 73.8343 28.0638 73.9678 28.1172C74.3148 28.2507 74.6084 28.3975 74.8486 28.5576C75.1156 28.6911 75.3958 28.7712 75.6895 28.7979C75.9564 28.7979 76.21 28.7845 76.4502 28.7578C76.7171 28.7044 77.0107 28.651 77.3311 28.5977C77.6514 28.4909 77.9717 28.4508 78.292 28.4775C78.6123 28.4775 78.9193 28.4108 79.2129 28.2773C79.5599 28.1439 79.7601 27.9837 79.8135 27.7969C79.8669 27.61 79.987 27.3564 80.1738 27.0361C80.0671 26.529 79.9469 26.1686 79.8135 25.9551C79.68 25.7415 79.4398 25.488 79.0928 25.1943C78.9593 25.0876 78.7992 25.0075 78.6123 24.9541C78.4521 24.874 78.3053 24.7939 78.1719 24.7139C77.6113 24.3669 76.9974 24.0199 76.3301 23.6729C75.6628 23.3258 74.9287 23.0856 74.1279 22.9521C73.6208 22.792 73.0869 22.5785 72.5264 22.3115C71.9925 22.0179 71.6055 21.6309 71.3652 21.1504C71.2852 21.0436 71.2318 20.9368 71.2051 20.8301C71.2051 20.7233 71.1784 20.6032 71.125 20.4697C70.9115 19.9359 70.6045 19.4287 70.2041 18.9482C69.8304 18.4678 69.5768 17.9206 69.4434 17.3066C69.39 17.1198 69.3766 16.9329 69.4033 16.7461C69.43 16.5326 69.4567 16.3324 69.4834 16.1455C69.5368 15.9587 69.5768 15.7585 69.6035 15.5449C69.6302 15.3314 69.6169 15.1045 69.5635 14.8643C69.6702 14.7575 69.737 14.6507 69.7637 14.5439C69.7904 14.4372 69.8304 14.3304 69.8838 14.2236C69.9906 14.0635 70.0573 13.9033 70.084 13.7432C70.1374 13.5563 70.2575 13.3828 70.4443 13.2227C70.6312 13.0625 70.778 12.9023 70.8848 12.7422C71.0182 12.5553 71.1517 12.4085 71.2852 12.3018C71.3652 12.2484 71.4587 12.2217 71.5654 12.2217C71.6722 12.195 71.7656 12.1549 71.8457 12.1016C71.9792 12.0215 72.0993 11.9281 72.2061 11.8213C72.3128 11.6878 72.4329 11.5677 72.5664 11.4609C73.1003 11.0605 73.7008 10.7269 74.3682 10.46C75.0355 10.1663 75.7161 9.93945 76.4102 9.7793C76.5169 9.64583 76.6904 9.53906 76.9307 9.45898C77.1709 9.35221 77.4245 9.28548 77.6914 9.25879C77.985 9.2054 78.2653 9.16536 78.5322 9.13867C78.7992 9.11198 79.026 9.08529 79.2129 9.05859C80.0404 9.16536 80.6943 9.29883 81.1748 9.45898C81.682 9.61914 82.1491 9.79264 82.5762 9.97949C83.0299 10.1396 83.5104 10.2998 84.0176 10.46C84.5247 10.6201 85.1787 10.7536 85.9795 10.8604C86.2998 11.1006 86.6335 11.3942 86.9805 11.7412C87.3542 12.0615 87.6745 12.4219 87.9414 12.8223C88.2083 13.2227 88.3952 13.6497 88.502 14.1035C88.6354 14.5306 88.6087 14.971 88.4219 15.4248C88.2884 15.6917 88.1816 15.9987 88.1016 16.3457C88.0215 16.666 87.9014 16.9596 87.7412 17.2266C87.6077 17.4401 87.4609 17.6937 87.3008 17.9873C87.1673 18.2809 87.0072 18.5212 86.8203 18.708C86.4466 19.0817 85.9661 19.3486 85.3789 19.5088C84.7917 19.6689 84.2178 19.7223 83.6572 19.6689C83.4971 19.402 83.2435 19.1751 82.8965 18.9883C82.5762 18.8014 82.2425 18.6146 81.8955 18.4277C81.5752 18.2142 81.2682 17.9873 80.9746 17.7471C80.7077 17.4801 80.5342 17.1598 80.4541 16.7861C80.374 16.3324 80.3874 15.8519 80.4941 15.3447C80.6276 14.8376 80.9212 14.4772 81.375 14.2637ZM96.6504 12.7422C97.1576 12.3952 97.598 11.9948 97.9717 11.541C98.3454 11.0872 98.7057 10.6335 99.0527 10.1797C99.2663 10.2064 99.4531 10.1663 99.6133 10.0596C99.7734 9.9528 99.9469 9.87272 100.134 9.81934C100.507 9.71257 100.881 9.72591 101.255 9.85938C101.655 9.96615 102.042 10.0062 102.416 9.97949C102.87 9.92611 103.297 9.80599 103.697 9.61914C104.124 9.43229 104.618 9.33887 105.179 9.33887C105.366 9.33887 105.539 9.4056 105.699 9.53906C105.859 9.64583 106.02 9.71257 106.18 9.73926C106.393 9.79264 106.58 9.76595 106.74 9.65918C106.927 9.55241 107.127 9.49902 107.341 9.49902C107.715 9.49902 107.995 9.61914 108.182 9.85938C108.395 10.0996 108.635 10.3398 108.902 10.5801C109.036 11.194 109.049 11.7946 108.942 12.3818C108.836 12.9691 108.809 13.5697 108.862 14.1836C108.916 14.584 108.969 14.971 109.022 15.3447C109.103 15.7184 109.143 16.1055 109.143 16.5059C109.169 16.8529 109.143 17.2266 109.062 17.627C109.009 18.0007 108.996 18.3743 109.022 18.748C109.049 18.8815 109.089 19.015 109.143 19.1484C109.196 19.2819 109.209 19.4154 109.183 19.5488C109.129 19.8424 109.009 20.0693 108.822 20.2295C108.635 20.3896 108.529 20.6032 108.502 20.8701C108.449 21.2705 108.529 21.6442 108.742 21.9912C108.982 22.3382 109.129 22.6986 109.183 23.0723C109.209 23.2324 109.196 23.4059 109.143 23.5928C109.089 23.7796 109.062 23.9531 109.062 24.1133C109.009 24.7005 109.009 25.3545 109.062 26.0752C109.143 26.7959 109.196 27.4632 109.223 28.0771C109.223 28.2907 109.236 28.5042 109.263 28.7178C109.316 28.9313 109.316 29.1048 109.263 29.2383C109.236 29.3717 109.169 29.4785 109.062 29.5586C108.982 29.6387 108.916 29.7321 108.862 29.8389C108.836 29.9723 108.836 30.1592 108.862 30.3994C108.916 30.6396 108.942 30.8665 108.942 31.0801C108.942 31.2669 108.929 31.4404 108.902 31.6006C108.876 31.7874 108.862 31.9476 108.862 32.0811C108.889 32.1611 108.916 32.2412 108.942 32.3213C108.996 32.4281 109.009 32.5215 108.982 32.6016C108.929 32.8418 108.742 33.0954 108.422 33.3623C108.128 33.6559 107.821 33.7894 107.501 33.7627C107.341 33.736 107.101 33.6025 106.78 33.3623C106.487 33.1488 106.273 32.9753 106.14 32.8418C105.899 32.5482 105.753 32.1745 105.699 31.7207C105.646 31.2669 105.526 30.8532 105.339 30.4795C105.259 30.346 105.139 30.2259 104.979 30.1191C104.845 29.9857 104.725 29.8389 104.618 29.6787C104.458 29.3851 104.351 29.0915 104.298 28.7979C104.244 28.4775 104.204 28.1706 104.178 27.877C104.178 27.5566 104.164 27.2497 104.138 26.9561C104.111 26.6357 104.044 26.3154 103.938 25.9951C103.884 25.8883 103.804 25.7949 103.697 25.7148C103.59 25.6348 103.497 25.528 103.417 25.3945C103.257 25.1276 103.15 24.9007 103.097 24.7139C103.043 24.527 102.87 24.3802 102.576 24.2734C101.642 24.2734 100.694 24.2467 99.7334 24.1934C98.7992 24.14 97.8783 24.1667 96.9707 24.2734C96.7572 24.3001 96.5703 24.3535 96.4102 24.4336C96.25 24.487 96.0632 24.527 95.8496 24.5537C95.7428 24.5537 95.6361 24.5404 95.5293 24.5137C95.4225 24.487 95.3291 24.4736 95.249 24.4736C94.8753 24.527 94.515 24.7005 94.168 24.9941C93.821 25.2611 93.554 25.528 93.3672 25.7949C93.2604 25.9551 93.1937 26.1553 93.167 26.3955C93.167 26.609 93.127 26.8226 93.0469 27.0361C92.9668 27.2497 92.8333 27.4499 92.6465 27.6367C92.4596 27.7969 92.3929 28.0104 92.4463 28.2773C92.1527 28.4909 91.8991 28.7578 91.6855 29.0781C91.4987 29.3984 91.3118 29.7321 91.125 30.0791C90.9382 30.3994 90.7246 30.7064 90.4844 31C90.2708 31.2936 90.0039 31.5072 89.6836 31.6406C89.5501 31.694 89.4167 31.7607 89.2832 31.8408C89.1764 31.9209 89.0563 31.9609 88.9229 31.9609C88.7894 31.9342 88.7093 31.8942 88.6826 31.8408C88.6826 31.7874 88.6025 31.7074 88.4424 31.6006C88.2822 31.4938 88.0954 31.3737 87.8818 31.2402C87.6416 31.1068 87.4147 30.96 87.2012 30.7998C86.9876 30.6396 86.8008 30.4795 86.6406 30.3193C86.4538 30.1325 86.3203 29.959 86.2402 29.7988C86.0267 29.3451 85.9867 29.0247 86.1201 28.8379C86.2536 28.6243 86.4271 28.3708 86.6406 28.0771C86.9342 27.6501 87.2679 27.1696 87.6416 26.6357C88.0153 26.1019 88.349 25.5947 88.6426 25.1143C88.8027 24.8473 88.9362 24.5938 89.043 24.3535C89.1764 24.1133 89.3366 23.8864 89.5234 23.6729C89.737 23.3792 90.0039 23.139 90.3242 22.9521C90.6712 22.7653 90.9115 22.5251 91.0449 22.2314C91.0983 22.098 91.125 21.9645 91.125 21.8311C91.125 21.6709 91.1517 21.5107 91.2051 21.3506C91.4186 20.8167 91.7523 20.3363 92.2061 19.9092C92.6598 19.4821 93.0068 19.0016 93.2471 18.4678C93.3005 18.3343 93.3271 18.2142 93.3271 18.1074C93.3538 17.974 93.3939 17.8405 93.4473 17.707C93.8743 16.7194 94.3949 15.8385 95.0088 15.0645C95.6494 14.2904 96.1966 13.5163 96.6504 12.7422ZM102.256 12.6221C101.936 12.8623 101.655 13.1426 101.415 13.4629C101.201 13.7565 100.908 13.9834 100.534 14.1436C100.427 14.3838 100.294 14.6107 100.134 14.8242C100 15.0378 99.8135 15.2113 99.5732 15.3447C99.4932 15.7718 99.333 16.1455 99.0928 16.4658C98.8525 16.7594 98.6257 17.0531 98.4121 17.3467C98.3053 17.4535 98.2119 17.5736 98.1318 17.707C98.0518 17.8138 97.9583 17.9339 97.8516 18.0674C97.7181 18.2008 97.5846 18.3076 97.4512 18.3877C97.3177 18.4411 97.1976 18.5212 97.0908 18.6279C96.9307 18.8415 96.7572 19.1351 96.5703 19.5088C96.3835 19.8825 96.21 20.1895 96.0498 20.4297C95.9163 20.5632 95.7829 20.6966 95.6494 20.8301C95.516 20.9635 95.4759 21.137 95.5293 21.3506C95.6094 21.5641 95.7695 21.7109 96.0098 21.791C96.25 21.8444 96.5169 21.8844 96.8105 21.9111C97.1309 21.9111 97.4378 21.8978 97.7314 21.8711C98.0251 21.8444 98.2653 21.8311 98.4521 21.8311C98.8258 21.8311 99.1995 21.8444 99.5732 21.8711C99.9736 21.8711 100.347 21.8577 100.694 21.8311C101.068 21.8044 101.388 21.7376 101.655 21.6309C101.949 21.5241 102.176 21.3639 102.336 21.1504C102.603 20.2962 102.67 19.4421 102.536 18.5879C102.403 17.707 102.283 16.8395 102.176 15.9854C102.122 15.7451 102.082 15.4782 102.056 15.1846C102.029 14.891 102.029 14.624 102.056 14.3838C102.082 14.1169 102.162 13.8633 102.296 13.623C102.456 13.3561 102.483 13.0492 102.376 12.7021L102.256 12.6221ZM128.462 10.0996C128.675 10.153 128.889 10.1797 129.103 10.1797C129.316 10.1797 129.53 10.2064 129.743 10.2598C129.823 10.2598 129.903 10.2865 129.983 10.3398C130.063 10.3932 130.144 10.4333 130.224 10.46C130.304 10.4867 130.384 10.4867 130.464 10.46C130.544 10.4333 130.624 10.4333 130.704 10.46C131.318 10.6201 131.812 10.8737 132.186 11.2207C132.559 11.541 132.933 11.9414 133.307 12.4219C133.467 12.6888 133.667 13.0091 133.907 13.3828C134.147 13.7298 134.348 14.1302 134.508 14.584C134.668 15.0111 134.761 15.4648 134.788 15.9453C134.815 16.4258 134.721 16.9062 134.508 17.3867C134.454 17.5202 134.374 17.6937 134.268 17.9072C134.161 18.0941 134.054 18.2943 133.947 18.5078C133.787 18.8014 133.587 19.1084 133.347 19.4287C133.106 19.749 132.853 19.9759 132.586 20.1094C132.372 20.2428 132.186 20.363 132.025 20.4697C131.892 20.5765 131.718 20.6833 131.505 20.79C131.131 20.9235 130.757 21.1237 130.384 21.3906C130.037 21.6309 129.676 21.8311 129.303 21.9912C129.169 22.0446 129.022 22.0846 128.862 22.1113C128.729 22.1113 128.595 22.138 128.462 22.1914C128.275 22.2982 128.128 22.445 128.021 22.6318C127.915 22.8187 127.715 22.9521 127.421 23.0322C128.088 23.1924 128.702 23.5661 129.263 24.1533C129.823 24.7139 130.25 25.3011 130.544 25.915C130.677 26.2887 130.864 26.6224 131.104 26.916C131.345 27.2096 131.451 27.5433 131.425 27.917C131.612 28.0771 131.758 28.2907 131.865 28.5576C131.999 28.7979 132.105 29.0648 132.186 29.3584C132.266 29.652 132.332 29.959 132.386 30.2793C132.466 30.5729 132.559 30.8398 132.666 31.0801C132.826 31.4271 133 31.7074 133.187 31.9209C133.373 32.1611 133.574 32.3747 133.787 32.5615C134.001 32.7751 134.214 32.9886 134.428 33.2021C134.641 33.4424 134.828 33.736 134.988 34.083C135.095 34.0563 135.175 34.0163 135.229 33.9629C135.309 33.9362 135.415 33.9362 135.549 33.9629C135.949 34.2565 136.39 34.4834 136.87 34.6436C137.377 34.8037 137.991 34.9372 138.712 35.0439C139.326 35.1507 139.9 35.1774 140.434 35.124C140.994 35.0973 141.568 35.0306 142.155 34.9238C142.342 34.8971 142.569 34.8171 142.836 34.6836C143.13 34.5768 143.41 34.4834 143.677 34.4033C143.97 34.3232 144.224 34.2832 144.438 34.2832C144.651 34.3099 144.758 34.4567 144.758 34.7236C144.758 34.9105 144.638 35.1374 144.397 35.4043C144.157 35.6712 143.944 35.8714 143.757 36.0049C143.303 36.3252 142.783 36.5788 142.195 36.7656C141.608 36.9525 140.994 37.0993 140.354 37.2061C139.713 37.3395 139.059 37.4329 138.392 37.4863C137.724 37.5397 137.097 37.5798 136.51 37.6064C136.136 37.6064 135.789 37.5397 135.469 37.4062C135.175 37.2995 134.908 37.2194 134.668 37.166C134.134 37.0859 133.654 36.9925 133.227 36.8857C132.826 36.779 132.439 36.6188 132.065 36.4053C131.745 36.2184 131.465 35.9515 131.225 35.6045C130.984 35.2842 130.651 35.084 130.224 35.0039C129.53 34.39 128.836 33.7627 128.142 33.1221C127.448 32.5081 126.9 31.734 126.5 30.7998C126.367 30.5596 126.22 30.3327 126.06 30.1191C125.899 29.8789 125.779 29.6253 125.699 29.3584C125.619 29.1715 125.566 28.9714 125.539 28.7578C125.539 28.5443 125.512 28.304 125.459 28.0371C125.406 27.7435 125.326 27.4365 125.219 27.1162C125.112 26.7692 125.005 26.4489 124.898 26.1553C124.872 26.0752 124.832 25.9951 124.778 25.915C124.725 25.835 124.685 25.7549 124.658 25.6748C124.605 25.5146 124.551 25.3278 124.498 25.1143C124.445 24.874 124.351 24.6872 124.218 24.5537C124.084 24.4469 123.857 24.3268 123.537 24.1934C123.243 24.0599 122.99 23.9665 122.776 23.9131C122.483 23.8597 122.189 23.873 121.896 23.9531C121.629 24.0332 121.375 24.0866 121.135 24.1133C120.788 24.1667 120.454 24.18 120.134 24.1533C119.813 24.0999 119.547 24.1133 119.333 24.1934C118.959 24.3268 118.652 24.6738 118.412 25.2344C118.172 25.7949 118.025 26.3822 117.972 26.9961C117.865 27.61 117.705 28.2106 117.491 28.7979C117.278 29.3584 117.104 29.9056 116.971 30.4395C116.864 30.7865 116.69 31.0667 116.45 31.2803C116.21 31.5205 115.876 31.6139 115.449 31.5605C115.236 31.5339 115.062 31.5072 114.929 31.4805C114.822 31.4805 114.675 31.4271 114.488 31.3203C114.355 31.3737 114.115 31.4938 113.768 31.6807C113.447 31.8942 113.22 32.041 113.087 32.1211C112.206 32.388 111.699 32.3213 111.565 31.9209C111.459 31.5205 111.512 30.8799 111.726 29.999C111.859 29.4385 112.059 28.8913 112.326 28.3574C112.62 27.8236 112.82 27.3698 112.927 26.9961C112.98 26.7559 112.993 26.5423 112.967 26.3555C112.967 26.1419 112.953 25.9417 112.927 25.7549C112.9 25.568 112.887 25.4079 112.887 25.2744C112.887 25.1143 112.94 24.9674 113.047 24.834C113.074 24.5404 113.154 24.3135 113.287 24.1533C113.421 23.9665 113.514 23.7262 113.567 23.4326C113.621 23.1657 113.688 22.8854 113.768 22.5918C113.848 22.2982 113.901 22.0179 113.928 21.751C113.954 21.4307 113.968 21.137 113.968 20.8701C113.994 20.5765 114.088 20.2428 114.248 19.8691C114.382 19.5221 114.515 19.1751 114.648 18.8281C114.809 18.4544 114.915 18.0941 114.969 17.7471C115.022 17.4801 115.049 17.2132 115.049 16.9463C115.076 16.6527 115.142 16.3724 115.249 16.1055C115.302 15.8919 115.409 15.7184 115.569 15.585C115.756 15.4515 115.876 15.278 115.93 15.0645C115.956 14.9043 115.943 14.7575 115.89 14.624C115.836 14.4906 115.836 14.3571 115.89 14.2236C116.05 13.6898 116.103 13.276 116.05 12.9824C115.996 12.6621 115.903 12.4085 115.77 12.2217C115.663 12.0081 115.556 11.8079 115.449 11.6211C115.369 11.4342 115.369 11.1807 115.449 10.8604C115.583 10.8337 115.703 10.7269 115.81 10.54C115.916 10.3265 116.063 10.193 116.25 10.1396C116.357 10.113 116.557 10.0996 116.851 10.0996C117.144 10.0729 117.465 10.0596 117.812 10.0596C118.159 10.0329 118.492 10.0329 118.812 10.0596C119.133 10.0596 119.386 10.0596 119.573 10.0596C119.787 10.0863 120.054 10.0863 120.374 10.0596C120.694 10.0062 121.028 9.97949 121.375 9.97949C121.722 9.9528 122.042 9.93945 122.336 9.93945C122.656 9.93945 122.923 9.99284 123.137 10.0996H128.462ZM122.376 20.3096C122.59 20.3096 122.79 20.2562 122.977 20.1494C123.19 20.0426 123.39 20.016 123.577 20.0693C123.844 20.1227 124.111 20.1628 124.378 20.1895C124.645 20.2161 124.938 20.2562 125.259 20.3096C125.392 20.3363 125.526 20.3229 125.659 20.2695C125.793 20.2161 125.966 20.2028 126.18 20.2295C126.607 19.9092 126.98 19.6689 127.301 19.5088C127.648 19.3486 127.968 19.0283 128.262 18.5479C128.395 18.3076 128.542 18.0807 128.702 17.8672C128.862 17.627 128.969 17.4268 129.022 17.2666C129.209 16.6527 129.183 16.1322 128.942 15.7051C128.702 15.2513 128.475 14.8509 128.262 14.5039C127.995 14.1035 127.741 13.8232 127.501 13.6631C127.261 13.4762 126.86 13.4095 126.3 13.4629C125.846 13.4896 125.379 13.4896 124.898 13.4629C124.418 13.4095 123.951 13.3962 123.497 13.4229C123.07 13.4495 122.683 13.5296 122.336 13.6631C121.989 13.7965 121.735 14.0368 121.575 14.3838C121.442 14.7842 121.282 15.2246 121.095 15.7051C120.908 16.1855 120.734 16.6794 120.574 17.1865C120.414 17.667 120.281 18.1608 120.174 18.668C120.067 19.1751 120.014 19.6689 120.014 20.1494C120.414 20.096 120.814 20.1227 121.215 20.2295C121.615 20.3096 122.002 20.3363 122.376 20.3096ZM135.449 28.958C135.503 28.3441 135.703 27.7969 136.05 27.3164C136.424 26.8092 136.704 26.2887 136.891 25.7549C136.997 25.4079 137.064 25.0475 137.091 24.6738C137.144 24.2734 137.171 23.8864 137.171 23.5127C137.198 23.1123 137.238 22.7253 137.291 22.3516C137.344 21.9512 137.438 21.5641 137.571 21.1904C137.438 20.9502 137.384 20.6833 137.411 20.3896C137.438 20.096 137.451 19.7891 137.451 19.4688C137.585 19.2819 137.691 19.0684 137.771 18.8281C137.852 18.5879 138.038 18.4277 138.332 18.3477C138.599 17.7604 138.732 17.1598 138.732 16.5459C138.732 15.9053 138.799 15.2513 138.933 14.584C138.959 14.4505 139.013 14.3304 139.093 14.2236C139.173 14.1169 139.24 13.9967 139.293 13.8633C139.48 13.3027 139.573 12.7155 139.573 12.1016C139.573 11.4609 139.68 10.8604 139.894 10.2998C140.054 10.2464 140.254 10.1663 140.494 10.0596C140.734 9.92611 140.975 9.80599 141.215 9.69922C141.482 9.56576 141.735 9.45898 141.976 9.37891C142.216 9.29883 142.429 9.27214 142.616 9.29883C142.75 9.35221 142.883 9.43229 143.017 9.53906C143.15 9.61914 143.31 9.72591 143.497 9.85938C143.631 9.93945 143.751 10.0329 143.857 10.1396C143.991 10.2464 144.124 10.3398 144.258 10.4199C144.365 10.4733 144.498 10.5267 144.658 10.5801C144.845 10.6068 144.965 10.6468 145.019 10.7002C145.045 10.7269 145.125 10.8203 145.259 10.9805C145.419 11.1406 145.566 11.3141 145.699 11.501C145.859 11.6878 146.006 11.8747 146.14 12.0615C146.273 12.2217 146.353 12.3285 146.38 12.3818C146.407 12.542 146.393 12.7288 146.34 12.9424C146.286 13.1292 146.206 13.3294 146.1 13.543C146.02 13.7298 145.926 13.93 145.819 14.1436C145.739 14.3304 145.673 14.5039 145.619 14.6641C145.539 14.9577 145.459 15.2513 145.379 15.5449C145.299 15.8118 145.192 16.0921 145.059 16.3857C144.925 16.7327 144.778 17.1331 144.618 17.5869C144.458 18.0407 144.351 18.5212 144.298 19.0283C144.244 19.402 144.098 19.6823 143.857 19.8691C143.644 20.056 143.497 20.3229 143.417 20.6699C143.364 20.9102 143.337 21.1637 143.337 21.4307C143.337 21.6976 143.337 21.9645 143.337 22.2314C143.364 22.4717 143.364 22.7119 143.337 22.9521C143.337 23.1924 143.284 23.4193 143.177 23.6328C143.097 23.7663 142.977 23.873 142.816 23.9531C142.656 24.0065 142.523 24.0999 142.416 24.2334C142.256 24.5003 142.109 24.834 141.976 25.2344C141.869 25.6348 141.775 26.0618 141.695 26.5156C141.615 26.9427 141.575 27.3831 141.575 27.8369C141.602 28.264 141.682 28.651 141.815 28.998C141.682 29.4251 141.442 29.7988 141.095 30.1191C140.774 30.4395 140.387 30.693 139.934 30.8799C139.48 31.04 138.986 31.1201 138.452 31.1201C137.945 31.1468 137.424 31.0667 136.891 30.8799C136.677 30.5596 136.424 30.266 136.13 29.999C135.836 29.7054 135.609 29.3584 135.449 28.958ZM155.729 18.8281C156.076 18.9349 156.424 18.9616 156.771 18.9082C157.118 18.8548 157.491 18.8548 157.892 18.9082C158.319 18.9616 158.706 19.0684 159.053 19.2285C159.4 19.362 159.827 19.3887 160.334 19.3086C161.055 19.2018 161.789 19.0951 162.536 18.9883C163.284 18.8548 163.991 18.8949 164.658 19.1084C164.712 19.402 164.658 19.6556 164.498 19.8691C164.365 20.056 164.191 20.1761 163.978 20.2295C163.897 20.5765 163.751 20.8167 163.537 20.9502C163.35 21.057 163.123 21.1237 162.856 21.1504C162.616 21.1771 162.336 21.1904 162.016 21.1904C161.722 21.1637 161.428 21.2038 161.135 21.3105C160.921 21.3906 160.708 21.5374 160.494 21.751C160.281 21.9378 160.014 22.0713 159.693 22.1514C159.56 22.2048 159.413 22.2314 159.253 22.2314C159.093 22.2048 158.906 22.2048 158.692 22.2314C158.506 22.2581 158.319 22.2982 158.132 22.3516C157.945 22.4049 157.771 22.4583 157.611 22.5117C157.451 22.5384 157.291 22.5384 157.131 22.5117C156.971 22.485 156.824 22.4984 156.69 22.5518C156.504 22.6051 156.277 22.6852 156.01 22.792C155.77 22.8988 155.503 22.9388 155.209 22.9121C154.915 23.2324 154.662 23.6462 154.448 24.1533C154.235 24.6605 154.048 25.1943 153.888 25.7549C153.728 26.3154 153.581 26.8893 153.447 27.4766C153.314 28.0638 153.167 28.611 153.007 29.1182C152.953 29.3317 152.9 29.5719 152.847 29.8389C152.82 30.1058 152.78 30.306 152.727 30.4395C152.673 30.5195 152.486 30.613 152.166 30.7197C151.872 30.7998 151.539 30.8799 151.165 30.96C150.791 31.0133 150.431 31.0534 150.084 31.0801C149.764 31.1068 149.563 31.0801 149.483 31C149.27 30.8665 149.136 30.8799 149.083 31.04C149.056 31.2269 148.976 31.3337 148.843 31.3604C148.683 31.4137 148.496 31.4271 148.282 31.4004C148.069 31.3737 147.868 31.4004 147.682 31.4805C147.548 31.5339 147.441 31.6273 147.361 31.7607C147.281 31.8942 147.174 32.001 147.041 32.0811C146.694 32.2679 146.36 32.3213 146.04 32.2412C145.693 32.1611 145.506 31.9209 145.479 31.5205C145.453 31.2803 145.52 31 145.68 30.6797C145.84 30.3327 146.027 30.0658 146.24 29.8789C146.214 29.5853 146.28 29.3317 146.44 29.1182C146.601 28.9046 146.707 28.651 146.761 28.3574C146.787 28.224 146.787 28.0771 146.761 27.917C146.734 27.7568 146.734 27.5967 146.761 27.4365C146.814 27.1429 146.988 26.8359 147.281 26.5156C147.575 26.1686 147.788 25.8083 147.922 25.4346C148.135 24.8473 148.309 24.14 148.442 23.3125C148.603 22.4583 148.803 21.7109 149.043 21.0703C149.123 20.8568 149.23 20.6699 149.363 20.5098C149.523 20.3229 149.644 20.1361 149.724 19.9492C149.937 19.362 150.044 18.7881 150.044 18.2275C150.044 17.667 150.071 17.0664 150.124 16.4258C150.151 16.1855 150.217 15.972 150.324 15.7852C150.431 15.5716 150.524 15.3314 150.604 15.0645C150.791 14.5039 150.898 13.9434 150.925 13.3828C150.978 12.7956 151.098 12.2617 151.285 11.7812C151.258 11.5143 151.178 11.2874 151.045 11.1006C150.911 10.9137 150.765 10.7536 150.604 10.6201C150.471 10.46 150.324 10.2998 150.164 10.1396C150.031 9.9528 149.951 9.72591 149.924 9.45898C150.111 9.35221 150.298 9.29883 150.484 9.29883C150.671 9.27214 150.858 9.28548 151.045 9.33887C151.232 9.36556 151.419 9.4056 151.605 9.45898C151.792 9.48568 151.979 9.48568 152.166 9.45898C152.326 9.4056 152.513 9.33887 152.727 9.25879C152.967 9.17871 153.247 9.16536 153.567 9.21875C153.754 9.27214 153.928 9.35221 154.088 9.45898C154.248 9.53906 154.475 9.59245 154.769 9.61914C155.035 9.67253 155.316 9.69922 155.609 9.69922C155.903 9.67253 156.17 9.72591 156.41 9.85938C156.597 9.91276 156.811 9.97949 157.051 10.0596C157.318 10.113 157.518 10.153 157.651 10.1797C158.185 10.2598 158.772 10.2731 159.413 10.2197C160.054 10.1396 160.721 10.1263 161.415 10.1797C161.735 10.2064 162.042 10.2598 162.336 10.3398C162.63 10.4199 162.937 10.4867 163.257 10.54C163.711 10.5934 164.231 10.6068 164.818 10.5801C165.432 10.5534 166.006 10.5133 166.54 10.46C166.887 10.4333 167.181 10.4066 167.421 10.3799C167.661 10.3265 167.888 10.2865 168.102 10.2598C168.315 10.2064 168.529 10.1797 168.742 10.1797C168.982 10.153 169.263 10.153 169.583 10.1797C169.743 10.2064 169.917 10.2331 170.104 10.2598C170.317 10.2598 170.424 10.3665 170.424 10.5801C170.451 10.8737 170.344 11.0739 170.104 11.1807C169.863 11.2874 169.61 11.4076 169.343 11.541C168.969 11.7279 168.635 11.9414 168.342 12.1816C168.075 12.3952 167.781 12.5687 167.461 12.7021C167.087 12.8623 166.727 12.9691 166.38 13.0225C166.033 13.0492 165.619 13.1292 165.139 13.2627C164.551 13.3962 163.978 13.5163 163.417 13.623C162.856 13.7031 162.256 13.7165 161.615 13.6631C161.268 13.6097 160.895 13.5563 160.494 13.5029C160.094 13.4229 159.733 13.4362 159.413 13.543C159.173 13.5964 158.959 13.7832 158.772 14.1035C158.612 14.3971 158.385 14.6374 158.092 14.8242C157.958 14.9043 157.825 14.9577 157.691 14.9844C157.558 15.0111 157.438 15.0511 157.331 15.1045C157.091 15.2646 156.891 15.4915 156.73 15.7852C156.597 16.0788 156.477 16.3991 156.37 16.7461C156.263 17.0664 156.157 17.4134 156.05 17.7871C155.943 18.1608 155.836 18.5078 155.729 18.8281ZM175.409 10.3398C175.436 10.4733 175.436 10.7402 175.409 11.1406C175.409 11.5143 175.396 11.9414 175.369 12.4219C175.342 12.8757 175.329 13.3294 175.329 13.7832C175.356 14.237 175.423 14.584 175.529 14.8242C175.583 14.9577 175.663 15.0645 175.77 15.1445C175.876 15.2246 175.956 15.318 176.01 15.4248C176.17 15.7184 176.263 16.0387 176.29 16.3857C176.343 16.7327 176.464 17.0397 176.65 17.3066C176.597 17.4668 176.517 17.5869 176.41 17.667C176.303 17.7471 176.223 17.8538 176.17 17.9873C176.383 18.2275 176.544 18.4945 176.65 18.7881C176.757 19.0817 176.744 19.4954 176.61 20.0293C176.851 20.0827 177.011 20.1895 177.091 20.3496C177.198 20.5098 177.264 20.6966 177.291 20.9102C177.344 21.1237 177.384 21.3372 177.411 21.5508C177.438 21.7376 177.518 21.8978 177.651 22.0312C177.838 22.0312 177.945 21.9912 177.972 21.9111C177.998 21.8311 178.078 21.791 178.212 21.791C178.479 21.444 178.746 21.0436 179.013 20.5898C179.306 20.1361 179.6 19.6823 179.894 19.2285C180.214 18.748 180.521 18.2943 180.814 17.8672C181.135 17.4401 181.455 17.0798 181.775 16.7861C181.855 16.7061 181.962 16.6393 182.096 16.5859C182.229 16.5059 182.323 16.4124 182.376 16.3057C182.563 16.0387 182.683 15.6784 182.736 15.2246C182.79 14.7441 182.883 14.3571 183.017 14.0635C183.15 13.7165 183.337 13.3962 183.577 13.1025C183.817 12.8089 184.044 12.4886 184.258 12.1416C184.418 11.848 184.565 11.5944 184.698 11.3809C184.832 11.1406 184.979 10.9404 185.139 10.7803C185.326 10.6201 185.539 10.5 185.779 10.4199C186.02 10.3132 186.326 10.2464 186.7 10.2197C186.887 10.2197 187.061 10.2598 187.221 10.3398C187.381 10.3932 187.554 10.4199 187.741 10.4199C188.248 10.4199 188.782 10.3799 189.343 10.2998C189.903 10.193 190.464 10.0863 191.024 9.97949C191.612 9.87272 192.172 9.81934 192.706 9.81934C193.267 9.79264 193.814 9.85938 194.348 10.0195C194.401 10.3932 194.268 10.6602 193.947 10.8203C193.654 10.9805 193.387 11.1273 193.146 11.2607C192.853 11.4476 192.533 11.6611 192.186 11.9014C191.865 12.1149 191.598 12.3418 191.385 12.582C191.251 12.7422 191.131 12.9157 191.024 13.1025C190.918 13.2894 190.798 13.4629 190.664 13.623C190.264 14.0768 189.837 14.584 189.383 15.1445C188.956 15.6784 188.595 16.2923 188.302 16.9863C187.928 17.5202 187.488 18.0273 186.98 18.5078C186.5 18.9883 186.033 19.5355 185.579 20.1494C185.339 20.4697 185.112 20.8301 184.898 21.2305C184.712 21.6042 184.498 21.9779 184.258 22.3516C183.884 22.9388 183.537 23.4993 183.217 24.0332C182.923 24.5404 182.456 24.9007 181.815 25.1143C181.789 25.568 181.629 25.9551 181.335 26.2754C181.041 26.5957 180.801 26.916 180.614 27.2363C180.214 27.957 179.8 28.651 179.373 29.3184C178.973 29.9857 178.506 30.613 177.972 31.2002C177.598 31.3337 177.278 31.4938 177.011 31.6807C176.771 31.8942 176.557 32.1077 176.37 32.3213C176.183 32.5615 175.996 32.8151 175.81 33.082C175.649 33.349 175.449 33.6292 175.209 33.9229C175.049 34.083 174.875 34.1898 174.688 34.2432C174.528 34.3232 174.355 34.3766 174.168 34.4033C174.008 34.4567 173.834 34.5101 173.647 34.5635C173.487 34.6436 173.34 34.7637 173.207 34.9238C172.993 35.2174 172.78 35.5111 172.566 35.8047C172.353 36.125 172.113 36.4053 171.846 36.6455C171.552 36.9391 171.232 37.166 170.885 37.3262C170.538 37.513 170.257 37.7799 170.044 38.127C169.51 38.3138 168.99 38.4873 168.482 38.6475C167.975 38.8343 167.375 39.0212 166.681 39.208C166.387 39.2881 166.107 39.3415 165.84 39.3682C165.573 39.4215 165.266 39.4883 164.919 39.5684C164.545 39.6484 164.185 39.7686 163.838 39.9287C163.491 40.0889 163.131 40.1823 162.757 40.209C161.903 40.2624 161.089 40.209 160.314 40.0488C159.514 39.8887 158.806 39.6885 158.192 39.4482C158.166 39.2347 158.086 39.0745 157.952 38.9678C157.819 38.861 157.792 38.6608 157.872 38.3672C158.006 38.1803 158.232 38.0736 158.553 38.0469C158.846 38.0469 159.113 38.0869 159.354 38.167C159.701 38.1136 159.981 38.0469 160.194 37.9668C160.408 37.8867 160.608 37.7933 160.795 37.6865C160.982 37.6064 161.169 37.5264 161.355 37.4463C161.542 37.3662 161.783 37.2995 162.076 37.2461C162.583 37.1393 163.064 37.0059 163.518 36.8457C163.945 36.6855 164.452 36.6455 165.039 36.7256C165.119 36.6722 165.186 36.5521 165.239 36.3652C165.266 36.1784 165.319 36.0583 165.399 36.0049C165.773 35.5511 166.2 35.2041 166.681 34.9639C166.868 34.6436 167.081 34.4167 167.321 34.2832C167.562 34.1764 167.802 34.083 168.042 34.0029C168.309 33.9495 168.576 33.8828 168.843 33.8027C169.136 33.7227 169.417 33.5625 169.684 33.3223C170.191 32.8685 170.671 32.4548 171.125 32.0811C171.579 31.734 171.993 31.2536 172.366 30.6396C172.526 30.4261 172.673 30.1859 172.807 29.9189C172.967 29.652 173.14 29.3717 173.327 29.0781C173.434 28.918 173.541 28.7845 173.647 28.6777C173.781 28.571 173.914 28.4108 174.048 28.1973C174.101 28.1172 174.088 28.0371 174.008 27.957C173.954 27.8503 173.888 27.7568 173.808 27.6768C173.728 27.5967 173.647 27.5166 173.567 27.4365C173.514 27.3298 173.501 27.223 173.527 27.1162C173.581 26.9827 173.581 26.7826 173.527 26.5156C173.474 26.222 173.421 25.9818 173.367 25.7949C173.314 25.3945 173.22 24.9408 173.087 24.4336C172.98 23.9264 172.873 23.526 172.767 23.2324C172.633 23.0189 172.513 22.8454 172.406 22.7119C172.326 22.5518 172.273 22.3382 172.246 22.0713C172.219 21.6976 172.219 21.3639 172.246 21.0703C172.299 20.7767 172.299 20.4831 172.246 20.1895C172.113 19.5488 171.979 19.0016 171.846 18.5479C171.766 18.2542 171.646 18.014 171.485 17.8271C171.352 17.6136 171.232 17.36 171.125 17.0664C171.125 16.7461 171.045 16.3991 170.885 16.0254C170.751 15.625 170.591 15.2246 170.404 14.8242C170.244 14.4238 170.084 14.0368 169.924 13.6631C169.79 13.2627 169.71 12.9023 169.684 12.582C169.523 12.3418 169.31 12.1283 169.043 11.9414C168.776 11.7546 168.522 11.5944 168.282 11.4609C168.042 11.3008 167.828 11.1673 167.642 11.0605C167.481 10.9271 167.401 10.7936 167.401 10.6602C167.401 10.5 167.428 10.3932 167.481 10.3398C167.562 10.2598 167.642 10.2064 167.722 10.1797C167.802 10.1263 167.882 10.0729 167.962 10.0195C168.069 9.96615 168.162 9.85938 168.242 9.69922C168.429 9.61914 168.643 9.5791 168.883 9.5791C169.123 9.5791 169.377 9.60579 169.644 9.65918C169.91 9.68587 170.164 9.72591 170.404 9.7793C170.671 9.80599 170.925 9.80599 171.165 9.7793C171.619 9.72591 172.073 9.72591 172.526 9.7793C173.007 9.83268 173.474 9.87272 173.928 9.89941C173.954 10.0329 174.048 10.113 174.208 10.1396C174.368 10.1396 174.528 10.1396 174.688 10.1396C174.849 10.113 174.995 10.113 175.129 10.1396C175.289 10.1663 175.382 10.2331 175.409 10.3398Z" fill="white"/>
</svg>
