<svg width="158" height="158" viewBox="0 0 158 158" fill="none" xmlns="http://www.w3.org/2000/svg">
<path d="M43.742 91.5971C41.7492 97.797 29.4318 108.376 20.3977 115.29C18.035 117.098 18.2866 120.783 20.9139 122.179L37.8154 131.16L49.6792 137.839C56.149 141.482 64.3661 139.44 69.1186 133.736C76.8814 124.418 88.6697 112.637 102.521 104.696C122.673 93.1421 89.6453 70.9965 70.6122 61.368C77.3298 62.0398 81.3603 67.7497 86.3985 68.0856C91.4367 68.4214 94.1237 65.3986 93.1161 59.3528C92.1084 53.307 73.971 39.8718 64.9023 42.8947C52.1389 47.597 42.3985 60.0245 41.0549 65.3986C39.7114 70.7726 46.7649 82.1925 43.742 91.5971Z" fill="url(#paint0_linear_210_1520)"/>
<path d="M138.145 100.297C121.363 106.185 108.261 120.706 104.51 125.305C92.4087 80.1437 58.6765 58.0722 43.323 52.6816C51.3003 47.4146 67.7936 34.9975 79.571 23.1486C91.3284 48.8595 130.908 91.4564 138.145 100.297Z" fill="#20CB64"/>
<path d="M138.605 100.297C121.823 106.185 108.722 120.706 104.97 125.305C92.8689 80.1437 59.1368 58.0723 43.7833 52.6817C51.7606 47.4146 68.2539 34.9976 80.0312 23.1487C91.7886 48.8596 131.368 91.4564 138.605 100.297Z" fill="url(#paint1_linear_210_1520)" fill-opacity="0.24" style="mix-blend-mode:multiply"/>
<g style="mix-blend-mode:multiply">
<path d="M138.145 100.297C121.363 106.185 108.261 120.706 104.51 125.305C92.4087 80.1437 58.6765 58.0722 43.323 52.6816C51.3003 47.4146 67.7936 34.9975 79.571 23.1486C91.3284 48.8595 130.908 91.4564 138.145 100.297Z" fill="url(#paint2_linear_210_1520)" fill-opacity="0.08"/>
</g>
<path d="M121.33 103.689C103.595 105.032 87.1822 115.668 82.368 119.139C82.368 72.3847 55.4977 42.3348 42.0626 33.1541C51.1313 30.1312 70.2763 22.406 84.7191 14.0091C89.4214 41.887 116.628 93.2763 121.33 103.689Z" fill="#067432"/>
<ellipse cx="85.2542" cy="66.0211" rx="7.05697" ry="15.4504" transform="rotate(-26.9804 85.2542 66.0211)" fill="#067432"/>
<g style="mix-blend-mode:overlay">
<path d="M121.33 103.689C103.595 105.032 87.1822 115.668 82.368 119.139C82.368 72.3847 55.4977 42.3348 42.0626 33.1541C51.1313 30.1312 70.2763 22.406 84.7191 14.0091C89.4214 41.887 116.628 93.2763 121.33 103.689Z" fill="url(#paint3_linear_210_1520)" fill-opacity="0.64"/>
</g>
<g style="mix-blend-mode:soft-light">
<path d="M121.33 103.689C103.595 105.032 87.1822 115.668 82.368 119.139C82.368 72.3847 55.4977 42.3348 42.0626 33.1541C51.1313 30.1312 70.2763 22.406 84.7191 14.0091C89.4214 41.887 116.628 93.2763 121.33 103.689Z" fill="url(#paint4_linear_210_1520)" fill-opacity="0.64"/>
</g>
<path d="M93.5127 37.4776C89.0284 37.6829 83.9043 42.1215 80.2097 46.2534C79.137 47.453 78.6007 48.0528 77.9109 49.3663C77.4593 50.2261 76.8303 52.127 76.6799 53.0865C76.45 54.5522 76.5222 55.3482 76.6667 56.9401C77.3975 64.9956 80.7598 78.1387 95.9321 85.299C97.5102 86.0437 98.2993 86.4161 100.065 86.6751C101.224 86.8451 103.618 86.7223 104.753 86.4348C106.483 85.9966 107.402 85.4417 109.24 84.3318C114.221 81.3232 120.242 76.9538 120.019 73.52C119.64 67.695 101.464 37.1135 93.5127 37.4776Z" fill="#FEE3C8"/>
<path d="M93.5125 37.4776C89.0282 37.6829 83.9041 42.1215 80.2095 46.2534C79.1361 47.4537 78.5995 48.0539 77.9091 49.3699C77.4579 50.23 76.8281 52.1376 76.6786 53.0973C76.4498 54.5657 76.5226 55.3569 76.6684 56.9394C77.3907 64.7804 80.6557 77.4573 95.1295 85.0944C96.7842 85.9676 97.6116 86.4041 99.4504 86.7324C100.666 86.9495 103.154 86.8768 104.355 86.5891C106.171 86.154 107.153 85.5602 109.117 84.3724C114.203 81.2966 120.239 76.9096 120.018 73.52C119.64 67.695 101.464 37.1135 93.5125 37.4776Z" fill="url(#paint5_linear_210_1520)" fill-opacity="0.64" style="mix-blend-mode:multiply"/>
<g style="mix-blend-mode:overlay" filter="url(#filter0_i_210_1520)">
<path d="M93.5125 37.4776C89.0282 37.6829 83.9041 42.1215 80.2095 46.2534C79.1652 47.4212 78.6431 48.0052 77.9507 49.3293C77.5006 50.19 76.8684 52.1195 76.7219 53.0796C76.4965 54.5568 76.5733 55.3519 76.727 56.9422C77.5467 65.4255 80.9707 77.5952 95.1019 85.0682C96.776 85.9535 97.6131 86.3962 99.4541 86.7259C100.674 86.9444 103.16 86.8724 104.365 86.5838C106.184 86.1481 107.17 85.5508 109.144 84.3561C114.224 81.2811 120.238 76.9037 120.018 73.52C119.64 67.695 101.464 37.1135 93.5125 37.4776Z" fill="url(#paint6_linear_210_1520)" fill-opacity="0.4"/>
</g>
<path d="M115.466 66.3397C111.454 70.9066 101.786 80.44 95.21 82.0385" stroke="#FFCF99" stroke-width="2" stroke-linecap="round"/>
<path d="M108.377 57.2243C104.064 61.7913 93.6702 71.3247 86.601 72.9231" stroke="#FFCF99" stroke-width="2" stroke-linecap="round"/>
<path d="M101.287 46.5897C97.1745 51.1566 87.2645 60.69 80.5241 62.2885" stroke="#FFCF99" stroke-width="2" stroke-linecap="round"/>
<g filter="url(#filter1_i_210_1520)">
<path d="M41.7163 91.6778C39.298 99.2015 26.0679 111.441 17.559 117.487L43.0598 105.449L57.3356 94.493C65.3793 88.3199 66.8374 76.7683 60.58 68.79C59.5218 67.4408 59.9956 65.4579 61.5494 64.7328L68.5866 61.4487C75.3041 62.1205 79.3347 67.8304 84.3728 68.1663C89.411 68.5022 92.098 65.4793 91.0904 59.4335C90.0828 53.3877 71.9453 39.9526 62.8766 42.9755C50.1133 47.6778 40.3728 60.1053 39.0293 65.4793C37.6858 70.8534 44.7392 82.2732 41.7163 91.6778Z" fill="#FEE3C8"/>
</g>
<mask id="mask0_210_1520" style="mask-type:alpha" maskUnits="userSpaceOnUse" x="0" y="0" width="158" height="158">
<rect width="158" height="158" rx="40" fill="#C4C4C4"/>
</mask>
<g mask="url(#mask0_210_1520)">
</g>
<defs>
<filter id="filter0_i_210_1520" x="76.5806" y="29.4743" width="51.4437" height="57.3791" filterUnits="userSpaceOnUse" color-interpolation-filters="sRGB">
<feFlood flood-opacity="0" result="BackgroundImageFix"/>
<feBlend mode="normal" in="SourceGraphic" in2="BackgroundImageFix" result="shape"/>
<feColorMatrix in="SourceAlpha" type="matrix" values="0 0 0 0 0 0 0 0 0 0 0 0 0 0 0 0 0 0 127 0" result="hardAlpha"/>
<feOffset dx="8" dy="-8"/>
<feGaussianBlur stdDeviation="8"/>
<feComposite in2="hardAlpha" operator="arithmetic" k2="-1" k3="1"/>
<feColorMatrix type="matrix" values="0 0 0 0 0 0 0 0 0 0 0 0 0 0 0 0 0 0 0.08 0"/>
<feBlend mode="normal" in2="shape" result="effect1_innerShadow_210_1520"/>
</filter>
<filter id="filter1_i_210_1520" x="9.55896" y="42.5385" width="81.7411" height="82.9487" filterUnits="userSpaceOnUse" color-interpolation-filters="sRGB">
<feFlood flood-opacity="0" result="BackgroundImageFix"/>
<feBlend mode="normal" in="SourceGraphic" in2="BackgroundImageFix" result="shape"/>
<feColorMatrix in="SourceAlpha" type="matrix" values="0 0 0 0 0 0 0 0 0 0 0 0 0 0 0 0 0 0 127 0" result="hardAlpha"/>
<feOffset dx="-11" dy="10"/>
<feGaussianBlur stdDeviation="4"/>
<feComposite in2="hardAlpha" operator="arithmetic" k2="-1" k3="1"/>
<feColorMatrix type="matrix" values="0 0 0 0 1 0 0 0 0 1 0 0 0 0 1 0 0 0 0.24 0"/>
<feBlend mode="normal" in2="shape" result="effect1_innerShadow_210_1520"/>
</filter>
<linearGradient id="paint0_linear_210_1520" x1="101.513" y1="58.681" x2="65.5741" y2="102.681" gradientUnits="userSpaceOnUse">
<stop stop-color="#F9CC9F"/>
<stop offset="1" stop-color="#FEE3C8"/>
</linearGradient>
<linearGradient id="paint1_linear_210_1520" x1="47.6904" y1="34.4359" x2="137.578" y2="120.526" gradientUnits="userSpaceOnUse">
<stop stop-color="#067432"/>
<stop offset="0.0001" stop-color="#067432"/>
<stop offset="0.385417" stop-color="#067432"/>
<stop offset="0.65625" stop-color="#067432"/>
<stop offset="1" stop-color="#067432"/>
</linearGradient>
<linearGradient id="paint2_linear_210_1520" x1="51.8031" y1="46.5892" x2="132.078" y2="108.727" gradientUnits="userSpaceOnUse">
<stop stop-color="#067432"/>
<stop offset="0.651042" stop-opacity="0.67"/>
<stop offset="1" stop-opacity="0.04"/>
</linearGradient>
<linearGradient id="paint3_linear_210_1520" x1="48.9563" y1="28.3589" x2="121.373" y2="101.788" gradientUnits="userSpaceOnUse">
<stop stop-color="#6FD096"/>
<stop offset="1" stop-color="#067432"/>
</linearGradient>
<linearGradient id="paint4_linear_210_1520" x1="58.8565" y1="66.742" x2="101.849" y2="63.3832" gradientUnits="userSpaceOnUse">
<stop stop-color="white"/>
<stop offset="0.348958" stop-color="#E3E3E3" stop-opacity="0.64"/>
<stop offset="0.583333" stop-color="#636363" stop-opacity="0.32"/>
<stop offset="0.979167" stop-color="white" stop-opacity="0.32"/>
</linearGradient>
<linearGradient id="paint5_linear_210_1520" x1="112.267" y1="54.7908" x2="84.6553" y2="78.9139" gradientUnits="userSpaceOnUse">
<stop stop-color="#F9DB9F"/>
<stop offset="0.53125" stop-color="#FEE3C8"/>
<stop offset="1" stop-color="#F9DB9F"/>
</linearGradient>
<linearGradient id="paint6_linear_210_1520" x1="112.067" y1="48.7636" x2="84.4047" y2="77.1556" gradientUnits="userSpaceOnUse">
<stop stop-color="white" stop-opacity="0.963542"/>
<stop offset="1" stop-color="white" stop-opacity="0"/>
</linearGradient>
</defs>
</svg>
